<!--?xml version="1.0" standalone="no"?-->

<svg version="1.0" xmlns="http://www.w3.org/2000/svg" width="100%" height="100%" viewBox="0 0 5500.000000 4000.000000" preserveAspectRatio="xMidYMid meet">

<g transform="translate(0.000000,4000.000000) scale(0.100000,-0.100000)" fill="#000000" stroke="none">
<path d="M25608 34462 l-118 -36 0 -78 0 -78 90 0 90 0 0 -310 0 -310 -90 0
-90 0 0 -100 0 -100 300 0 300 0 0 100 0 100 -90 0 -90 0 0 425 0 425 -92 -1
c-77 -1 -114 -7 -210 -37z" class="svg-elem-1"></path>
<path d="M28133 33990 c-23 -5 -56 -16 -73 -25 -60 -31 -61 -41 -58 -510 4
-549 -20 -510 305 -510 189 0 203 1 230 21 15 12 37 36 48 55 19 32 20 55 23
397 5 479 -4 529 -94 561 -46 16 -318 24 -381 11z m232 -525 l0 -320 -65 0
-65 0 -3 310 c-1 170 0 316 3 323 3 9 23 12 67 10 l63 -3 0 -320z" class="svg-elem-2"></path>
<path d="M30100 33919 c-19 -6 -43 -18 -54 -27 -44 -39 -46 -60 -46 -486 0
-439 3 -466 55 -500 40 -26 150 -39 296 -34 157 6 200 20 234 78 19 34 20 51
20 455 0 383 -2 423 -18 452 -33 61 -60 68 -267 70 -105 1 -200 -3 -220 -8z
m268 -516 l2 -323 -64 0 c-49 0 -65 4 -70 16 -3 9 -6 149 -6 313 0 223 3 300
12 309 8 8 34 12 68 10 l55 -3 3 -322z" class="svg-elem-3"></path>
<path d="M31910 33919 c-49 -15 -86 -54 -99 -104 -15 -59 -15 -756 0 -824 21
-101 92 -126 334 -119 179 5 217 17 246 82 17 38 19 74 19 451 0 458 0 459
-70 500 -31 18 -54 20 -215 22 -102 1 -195 -2 -215 -8z m259 -203 c8 -9 11
-103 9 -322 l-3 -309 -67 -3 -68 -3 0 319 c0 175 3 322 7 325 12 13 110 7 122
-7z" class="svg-elem-4"></path>
<path d="M33603 33921 c-18 -5 -44 -16 -59 -25 -52 -35 -54 -51 -54 -493 0
-383 2 -411 20 -451 31 -68 60 -77 275 -77 198 0 219 3 264 40 49 42 53 84 49
520 -3 366 -4 392 -23 422 -35 59 -69 68 -265 70 -96 1 -190 -2 -207 -6z m255
-518 l2 -323 -65 0 -65 0 0 318 c0 175 3 322 7 326 4 4 32 6 63 4 l55 -3 3
-322z" class="svg-elem-5"></path>
<path d="M35223 33889 l-123 -40 0 -79 0 -80 90 0 90 0 0 -305 0 -305 -90 0
-90 0 0 -105 0 -105 305 0 306 0 -3 103 -3 102 -92 3 -93 3 0 424 0 425 -87
-1 c-73 -1 -109 -8 -210 -40z" class="svg-elem-6"></path>
<path d="M36747 33916 c-46 -17 -64 -32 -83 -67 -11 -23 -14 -103 -14 -451 0
-407 1 -424 20 -456 36 -59 71 -67 280 -67 165 0 189 2 225 20 75 38 75 34 75
511 l0 421 -23 34 c-39 58 -62 64 -262 66 -133 2 -190 -1 -218 -11z m262 -200
c8 -9 11 -103 9 -322 l-3 -309 -65 0 -65 0 -3 309 c-2 219 1 313 9 322 7 8 31
14 59 14 28 0 52 -6 59 -14z" class="svg-elem-7"></path>
<path d="M38285 33921 c-53 -13 -76 -32 -96 -74 -17 -39 -19 -71 -19 -447 0
-373 2 -408 19 -446 32 -70 63 -79 286 -79 209 0 232 6 279 68 20 28 21 39 24
443 4 565 18 537 -283 541 -99 1 -193 -2 -210 -6z m253 -518 l2 -323 -65 0
-65 0 0 318 c0 175 3 322 7 326 4 4 32 6 63 4 l55 -3 3 -322z" class="svg-elem-8"></path>
<path d="M41299 33919 c-47 -13 -88 -57 -100 -105 -13 -56 -11 -762 2 -823 21
-101 92 -126 334 -119 183 6 216 17 245 80 18 40 20 68 20 453 0 458 0 459
-70 500 -31 18 -54 20 -215 22 -99 1 -196 -3 -216 -8z m260 -203 c8 -9 11
-103 9 -322 l-3 -309 -67 -3 -68 -3 0 319 c0 175 3 322 7 325 12 13 110 7 122
-7z" class="svg-elem-9"></path>
<path d="M42833 33889 l-123 -40 0 -79 0 -80 90 0 90 0 0 -305 0 -305 -90 0
-90 0 0 -105 0 -105 305 0 306 0 -3 103 -3 102 -92 3 -93 3 0 424 0 425 -87
-1 c-74 0 -108 -7 -210 -40z" class="svg-elem-10"></path>
<path d="M44319 33919 c-55 -15 -87 -55 -100 -123 -6 -36 -9 -196 -7 -434 3
-357 4 -379 23 -412 38 -66 74 -75 290 -75 217 0 243 7 280 80 19 37 20 64 23
395 4 402 0 465 -32 512 -38 57 -61 63 -261 65 -99 1 -196 -3 -216 -8z m271
-513 c0 -165 -4 -307 -9 -314 -5 -9 -26 -12 -67 -10 l-59 3 0 315 0 315 55 5
c30 3 61 1 68 -4 9 -6 12 -80 12 -310z" class="svg-elem-11"></path>
<path d="M45853 33889 l-123 -40 0 -79 0 -80 93 0 93 0 2 -305 2 -305 -95 0
-95 0 0 -105 0 -105 305 0 305 0 0 105 0 105 -95 0 -95 0 0 425 0 425 -87 -1
c-74 0 -108 -7 -210 -40z" class="svg-elem-12"></path>
<path d="M47363 33889 l-123 -40 0 -80 0 -79 95 0 95 0 0 -252 c0 -139 -3
-277 -6 -305 l-7 -53 -88 0 -89 0 0 -105 0 -105 305 0 305 0 0 105 0 105 -95
0 -95 0 0 425 0 425 -87 -1 c-74 -1 -108 -7 -210 -40z" class="svg-elem-13"></path>
<path d="M48875 33890 l-120 -38 -3 -81 -3 -81 96 0 95 0 0 -305 0 -305 -95 0
-95 0 0 -105 0 -105 305 0 305 0 0 105 0 105 -95 0 -95 0 0 425 0 425 -87 -1
c-72 -1 -110 -8 -208 -39z" class="svg-elem-14"></path>
<path d="M50383 33889 l-123 -40 0 -79 0 -80 95 0 95 0 -2 -302 -3 -303 -92
-3 -93 -3 0 -104 0 -105 305 0 305 0 0 105 0 105 -95 0 -95 0 0 425 0 425 -87
-1 c-73 -1 -109 -8 -210 -40z" class="svg-elem-15"></path>
<path d="M51893 33889 l-123 -40 0 -79 0 -80 95 0 95 0 0 -305 0 -305 -95 0
-95 0 0 -105 0 -105 305 0 305 0 0 105 0 105 -95 0 -95 0 0 425 0 425 -87 -1
c-73 -1 -109 -8 -210 -40z" class="svg-elem-16"></path>
<path d="M23663 33306 l-133 -41 0 -77 0 -78 95 0 95 0 0 -310 0 -310 -95 0
-95 0 0 -100 0 -100 305 0 305 0 0 100 0 100 -95 0 -95 0 0 430 0 430 -77 -1
c-61 -1 -107 -10 -210 -43z" class="svg-elem-17"></path>
<path d="M20522 32271 c-18 -5 -42 -17 -53 -27 -49 -44 -49 -47 -49 -489 0
-479 -1 -472 79 -509 41 -19 63 -21 221 -20 191 0 239 10 272 54 34 47 40 128
36 514 -3 350 -4 373 -23 405 -43 72 -55 76 -263 78 -103 1 -202 -2 -220 -6z
m263 -516 l0 -320 -65 0 -65 0 -3 310 c-1 170 0 316 3 323 3 9 23 12 67 10
l63 -3 0 -320z" class="svg-elem-18"></path>
<path d="M27187 32230 c-27 -5 -60 -16 -73 -25 -52 -34 -54 -50 -54 -503 l0
-419 23 -34 c40 -59 60 -64 277 -64 213 0 234 5 274 58 20 28 21 40 24 455 2
391 1 430 -15 462 -31 60 -73 73 -252 76 -86 2 -178 -1 -204 -6z m238 -525 l0
-320 -65 0 -65 0 -3 310 c-1 170 0 316 3 323 3 9 23 12 67 10 l63 -3 0 -320z" class="svg-elem-19"></path>
<path d="M29581 32110 c-48 -12 -84 -42 -98 -81 -8 -24 -12 -152 -12 -439 -1
-373 1 -408 18 -446 32 -70 64 -79 276 -79 198 0 220 3 264 40 49 42 53 84 49
515 -3 349 -5 388 -21 422 -32 63 -66 73 -267 75 -96 1 -190 -2 -209 -7z m254
-515 l0 -320 -59 -3 c-41 -2 -62 1 -67 10 -13 20 -11 595 2 619 9 17 19 20 67
17 l57 -3 0 -320z" class="svg-elem-20"></path>
<path d="M31633 32110 c-60 -13 -90 -36 -108 -83 -14 -37 -15 -97 -13 -458 3
-376 5 -417 21 -442 34 -53 67 -61 250 -65 188 -4 247 5 289 45 45 43 50 91
46 513 -3 365 -4 387 -23 420 -36 62 -77 74 -260 77 -88 1 -179 -2 -202 -7z
m245 -519 c2 -245 -1 -316 -10 -323 -20 -12 -103 -9 -116 4 -13 13 -18 619 -5
632 4 4 34 6 68 4 l60 -3 3 -314z" class="svg-elem-21"></path>
<path d="M33473 32077 l-133 -41 0 -78 0 -78 95 0 95 0 0 -310 0 -310 -95 0
-95 0 0 -100 0 -100 305 0 305 0 0 100 0 99 -92 3 -93 3 -3 428 -2 427 -78 -1
c-61 0 -104 -9 -209 -42z" class="svg-elem-22"></path>
<path d="M35158 32077 l-128 -40 0 -79 0 -78 90 0 90 0 0 -310 0 -310 -90 0
-90 0 0 -100 0 -100 305 0 305 0 0 100 0 100 -95 0 -95 0 0 430 0 430 -82 -1
c-68 -1 -106 -8 -210 -42z" class="svg-elem-23"></path>
<path d="M36741 32109 c-61 -12 -86 -31 -105 -81 -15 -38 -16 -93 -14 -459 3
-460 2 -449 71 -486 27 -16 59 -18 227 -18 219 0 249 7 285 68 19 30 20 56 23
422 3 267 0 406 -8 442 -14 64 -49 97 -120 112 -59 13 -295 13 -359 0z m247
-518 c2 -245 -1 -316 -10 -323 -20 -12 -103 -9 -116 4 -9 9 -12 91 -12 309 0
164 3 305 6 314 5 13 19 15 68 13 l61 -3 3 -314z" class="svg-elem-24"></path>
<path d="M38277 32106 c-26 -7 -59 -23 -72 -36 -42 -40 -47 -94 -43 -515 3
-366 4 -392 23 -422 36 -61 66 -68 285 -68 178 0 198 2 230 20 69 41 69 42 69
500 1 385 -1 413 -19 453 -30 65 -61 75 -260 79 -116 2 -179 -1 -213 -11z
m257 -212 c3 -9 6 -148 6 -309 0 -329 1 -325 -70 -325 -75 0 -70 -23 -70 324
0 172 3 316 7 319 3 4 32 7 64 7 43 0 58 -4 63 -16z" class="svg-elem-25"></path>
<path d="M41307 32106 c-61 -17 -92 -47 -106 -101 -13 -54 -15 -772 -2 -829
13 -55 54 -93 115 -107 32 -7 115 -10 216 -8 144 4 170 7 200 24 70 41 70 42
70 500 0 385 -2 413 -20 453 -30 65 -61 75 -260 79 -116 2 -179 -1 -213 -11z
m261 -510 c2 -219 -1 -313 -9 -322 -6 -8 -30 -14 -54 -14 -81 0 -75 -25 -75
332 l0 319 68 -3 67 -3 3 -309z" class="svg-elem-26"></path>
<path d="M42838 32077 l-128 -40 0 -79 0 -78 90 0 90 0 0 -310 0 -310 -90 0
-90 0 0 -100 0 -100 305 0 305 0 0 100 0 100 -95 0 -95 0 0 430 0 430 -82 -1
c-68 -1 -106 -8 -210 -42z" class="svg-elem-27"></path>
<path d="M44348 32078 l-128 -41 0 -79 0 -78 90 0 90 0 0 -310 0 -310 -90 0
-90 0 0 -100 0 -100 305 0 305 0 0 100 0 100 -95 0 -95 0 0 430 0 430 -82 -1
c-69 0 -105 -7 -210 -41z" class="svg-elem-28"></path>
<path d="M45858 32077 l-128 -40 0 -79 0 -78 95 0 95 0 -2 -307 -3 -308 -92
-3 -93 -3 0 -99 0 -100 305 0 305 0 0 103 0 102 -92 0 -93 0 -3 428 -2 427
-83 -1 c-67 -1 -105 -8 -209 -42z" class="svg-elem-29"></path>
<path d="M47455 32105 c-22 -8 -79 -26 -127 -40 l-88 -26 0 -79 0 -79 93 -3
92 -3 0 -297 c0 -163 -2 -299 -5 -301 -3 -3 -43 -7 -90 -9 l-85 -3 -3 -102 -3
-103 306 0 305 0 0 100 0 100 -64 0 c-35 0 -78 3 -95 6 l-31 7 0 423 0 424
-82 -1 c-46 0 -101 -7 -123 -14z" class="svg-elem-30"></path>
<path d="M48878 32077 l-128 -40 0 -78 0 -78 93 -3 92 -3 0 -305 0 -305 -92 2
-93 2 0 -105 0 -104 305 0 305 0 0 100 0 99 -92 3 -93 3 -3 428 -2 427 -83 -1
c-67 -1 -105 -8 -209 -42z" class="svg-elem-31"></path>
<path d="M50367 32106 c-58 -16 -84 -39 -98 -85 -6 -23 -9 -182 -7 -453 3
-404 4 -417 24 -445 40 -53 61 -58 274 -58 228 0 254 7 286 78 18 38 19 72 19
452 0 394 -1 411 -20 445 -39 66 -69 74 -260 77 -118 2 -184 -1 -218 -11z
m261 -515 c2 -245 -1 -316 -10 -323 -20 -12 -103 -9 -116 4 -13 13 -18 619 -5
632 4 4 34 6 68 4 l60 -3 3 -314z" class="svg-elem-32"></path>
<path d="M51877 32106 c-58 -16 -84 -39 -98 -85 -6 -23 -9 -182 -7 -453 4
-541 -19 -503 303 -503 316 0 299 -29 303 494 2 249 -1 402 -8 436 -11 53 -32
80 -80 106 -36 19 -349 23 -413 5z m261 -515 c2 -245 -1 -316 -10 -323 -20
-12 -103 -9 -116 4 -13 13 -18 619 -5 632 4 4 34 6 68 4 l60 -3 3 -314z" class="svg-elem-33"></path>
<path d="M25668 30457 l-128 -41 0 -78 0 -78 95 0 95 0 -2 -307 -3 -308 -92
-3 -93 -3 0 -99 0 -100 305 0 305 0 0 100 0 100 -95 0 -95 0 0 430 0 430 -82
-1 c-68 -1 -107 -9 -210 -42z" class="svg-elem-34"></path>
<path d="M28793 30267 l-123 -40 0 -79 0 -78 90 0 90 0 0 -310 0 -310 -90 0
-90 0 0 -100 0 -100 300 0 300 0 0 100 0 100 -90 0 -90 0 0 430 0 430 -87 -1
c-74 -1 -107 -7 -210 -42z" class="svg-elem-35"></path>
<path d="M31163 30289 c-39 -11 -69 -48 -83 -100 -7 -25 -10 -182 -8 -437 3
-357 5 -400 21 -429 33 -62 58 -68 282 -68 218 0 239 4 279 58 20 28 21 40 24
450 3 466 3 464 -61 511 -26 19 -44 21 -225 23 -108 1 -211 -3 -229 -8z m285
-494 c1 -165 0 -310 -3 -323 -5 -21 -10 -23 -68 -20 l-62 3 -3 310 c-1 170 0
316 3 323 3 9 23 12 67 10 l63 -3 3 -300z" class="svg-elem-36"></path>
<path d="M33238 30262 l-118 -37 0 -77 0 -78 90 0 90 0 0 -310 0 -310 -90 0
-90 0 0 -100 0 -100 305 0 305 0 0 100 0 100 -95 0 -95 0 0 425 0 425 -92 -1
c-78 0 -113 -7 -210 -37z" class="svg-elem-37"></path>
<path d="M35040 30261 l-115 -37 -3 -76 -3 -77 93 -3 93 -3 3 -307 2 -308 -95
0 -95 0 0 -100 0 -100 305 0 305 0 0 100 0 100 -95 0 -95 0 0 425 0 425 -92
-1 c-78 -1 -111 -7 -208 -38z" class="svg-elem-38"></path>
<path d="M36660 30286 c-46 -16 -77 -64 -85 -129 -4 -29 -5 -218 -3 -422 3
-412 6 -427 70 -462 29 -16 59 -18 240 -18 193 0 208 1 235 21 63 46 63 47 63
498 0 392 -1 411 -20 452 -32 66 -64 74 -283 73 -119 0 -194 -5 -217 -13z
m285 -511 l0 -320 -65 0 -65 0 -3 310 c-1 170 0 316 3 323 3 9 23 12 67 10
l63 -3 0 -320z" class="svg-elem-39"></path>
<path d="M38270 30261 l-115 -37 -3 -77 -3 -76 93 -3 93 -3 3 -307 2 -308 -95
0 -95 0 0 -100 0 -100 305 0 305 0 0 100 0 99 -92 3 -93 3 -3 423 -2 422 -93
-1 c-77 -1 -111 -7 -207 -38z" class="svg-elem-40"></path>
<path d="M41280 30287 c-45 -16 -77 -65 -85 -130 -4 -29 -5 -221 -3 -427 3
-429 3 -426 84 -462 41 -18 63 -19 239 -16 177 3 196 5 222 24 63 46 63 47 63
499 0 452 0 453 -63 499 -26 19 -44 21 -225 23 -135 2 -208 -1 -232 -10z m284
-203 c3 -9 6 -150 6 -314 0 -245 -3 -300 -14 -309 -8 -7 -37 -11 -68 -9 l-53
3 -3 310 c-1 170 0 315 3 322 7 20 121 17 129 -3z" class="svg-elem-41"></path>
<path d="M42790 30286 c-46 -16 -77 -64 -85 -129 -4 -29 -5 -221 -3 -427 3
-429 3 -426 84 -462 41 -18 63 -19 237 -16 167 3 196 5 223 22 63 38 64 42 64
501 1 472 1 468 -74 505 -38 18 -60 20 -227 19 -120 0 -196 -5 -219 -13z m284
-202 c3 -9 6 -150 6 -314 0 -245 -3 -300 -14 -309 -8 -7 -37 -11 -68 -9 l-53
3 -3 310 c-1 170 0 315 3 322 7 20 121 17 129 -3z" class="svg-elem-42"></path>
<path d="M44338 30262 l-118 -35 0 -82 0 -81 90 3 90 4 0 -311 0 -310 -90 0
-90 0 0 -100 0 -100 305 0 305 0 0 100 0 100 -95 0 -95 0 0 425 0 425 -92 -1
c-76 -1 -114 -7 -210 -37z" class="svg-elem-43"></path>
<path d="M45848 30262 l-118 -37 0 -77 0 -77 93 -3 92 -3 3 -307 2 -308 -95 0
-95 0 0 -100 0 -100 305 0 305 0 0 100 0 100 -95 0 -95 0 0 425 0 425 -92 -1
c-78 0 -113 -7 -210 -37z" class="svg-elem-44"></path>
<path d="M47312 30280 c-72 -33 -72 -31 -72 -506 0 -474 -1 -467 76 -504 41
-20 56 -21 236 -18 217 4 238 9 269 70 18 35 19 63 19 453 0 474 0 472 -72
505 -38 17 -66 20 -228 20 -162 0 -190 -3 -228 -20z m293 -505 l0 -320 -65 0
-65 0 -3 310 c-1 170 0 316 3 323 3 9 23 12 67 10 l63 -3 0 -320z" class="svg-elem-45"></path>
<path d="M48823 30281 c-79 -37 -78 -30 -78 -496 0 -459 1 -469 63 -507 35
-22 49 -23 229 -26 172 -3 196 -2 236 16 31 14 49 30 63 58 18 37 19 64 19
449 0 450 -1 456 -59 498 -29 21 -43 22 -231 25 -180 2 -204 0 -242 -17z m292
-506 l0 -320 -53 -3 c-31 -2 -60 2 -68 9 -11 9 -14 66 -14 319 0 168 3 310 7
314 4 4 34 6 68 4 l60 -3 0 -320z" class="svg-elem-46"></path>
<path d="M50378 30262 l-118 -37 0 -77 0 -77 93 -3 92 -3 0 -305 0 -305 -92
-3 -93 -3 0 -99 0 -100 305 0 305 0 0 100 0 100 -95 0 -95 0 0 425 0 425 -92
-1 c-78 0 -113 -7 -210 -37z" class="svg-elem-47"></path>
<path d="M51850 30284 c-19 -8 -44 -27 -55 -42 -19 -26 -20 -45 -23 -447 -3
-469 -1 -483 61 -520 28 -18 54 -20 224 -23 174 -3 196 -2 237 16 83 37 81 27
81 507 0 555 21 519 -295 522 -156 2 -202 0 -230 -13z m285 -509 l0 -320 -59
-3 c-41 -2 -62 1 -67 10 -10 15 -12 598 -3 623 5 13 19 15 68 13 l61 -3 0
-320z" class="svg-elem-48"></path>
<path d="M17328 28867 l-128 -40 0 -79 0 -78 90 0 90 0 0 -310 0 -310 -90 0
-90 0 0 -100 0 -100 305 0 305 0 0 100 0 100 -95 0 -95 0 0 430 0 430 -82 -1
c-68 -1 -107 -9 -210 -42z" class="svg-elem-49"></path>
<path d="M23215 28701 l-120 -38 -3 -81 -3 -82 91 0 90 0 0 -305 0 -305 -90 0
-90 0 0 -105 0 -105 303 2 302 3 3 103 3 102 -96 0 -95 0 0 425 0 425 -87 -1
c-73 0 -109 -7 -208 -38z" class="svg-elem-50"></path>
<path d="M27615 28456 l-130 -43 -3 -76 -3 -77 96 0 95 0 0 -310 0 -310 -95 0
-95 0 0 -100 0 -100 305 0 305 0 0 100 0 100 -90 0 -90 0 -2 428 -3 427 -80 2
c-70 1 -97 -4 -210 -41z" class="svg-elem-51"></path>
<path d="M30585 28480 c-17 -5 -43 -22 -58 -38 -43 -45 -49 -114 -45 -524 3
-339 4 -366 23 -403 35 -71 69 -80 285 -80 167 0 189 2 224 21 77 40 76 35 76
504 0 457 0 458 -63 504 -26 19 -44 21 -220 23 -106 1 -206 -2 -222 -7z m270
-515 l0 -320 -65 0 -65 0 -3 310 c-1 170 0 316 3 323 3 9 23 12 67 10 l63 -3
0 -320z" class="svg-elem-52"></path>
<path d="M32950 28450 l-115 -37 -3 -82 -3 -81 91 0 90 0 0 -305 0 -305 -90 0
-90 0 0 -105 0 -105 300 0 300 0 0 105 0 105 -90 0 -90 0 0 425 0 425 -92 -1
c-79 -1 -111 -7 -208 -39z" class="svg-elem-53"></path>
<path d="M34903 28449 l-123 -40 0 -79 0 -80 95 0 95 0 0 -305 0 -305 -95 0
-95 0 0 -105 0 -105 305 0 305 0 0 105 0 105 -95 0 -95 0 0 425 0 425 -87 -1
c-74 0 -108 -7 -210 -40z" class="svg-elem-54"></path>
<path d="M36640 28451 l-115 -37 -3 -82 -3 -82 91 0 90 0 0 -305 0 -305 -90 0
-90 0 0 -105 0 -105 303 2 302 3 3 103 3 102 -96 0 -95 0 0 425 0 425 -92 -1
c-78 -1 -111 -7 -208 -38z" class="svg-elem-55"></path>
<path d="M38223 28479 c-34 -10 -80 -58 -88 -92 -3 -12 -4 -212 -3 -444 3
-410 4 -422 24 -450 36 -48 79 -57 279 -58 160 0 184 2 220 20 76 38 76 32 73
522 l-3 432 -29 30 c-17 17 -46 36 -65 41 -45 12 -365 12 -408 -1z m272 -514
l0 -320 -65 0 -65 0 -3 310 c-1 170 0 316 3 323 3 9 23 12 67 10 l63 -3 0
-320z" class="svg-elem-56"></path>
<path d="M41320 28451 l-115 -37 -3 -82 -3 -82 91 0 90 0 0 -305 0 -305 -90 0
-90 0 0 -105 0 -105 303 2 302 3 3 103 3 102 -96 0 -95 0 0 425 0 425 -92 -1
c-78 -1 -111 -7 -208 -38z" class="svg-elem-57"></path>
<path d="M42809 28481 c-46 -15 -69 -31 -86 -64 -16 -29 -18 -70 -18 -452 0
-404 1 -421 20 -455 38 -65 75 -75 280 -75 162 0 185 2 226 21 81 38 80 30 77
518 -3 413 -4 425 -24 453 -39 52 -63 58 -264 60 -102 1 -197 -2 -211 -6z
m260 -209 c12 -23 14 -602 3 -620 -6 -9 -27 -12 -68 -10 l-59 3 -3 314 c-2
245 1 316 10 323 7 4 34 8 60 8 36 0 50 -4 57 -18z" class="svg-elem-58"></path>
<path d="M44340 28450 l-115 -39 -3 -80 -3 -81 91 0 90 0 0 -305 0 -305 -90 0
-90 0 0 -105 0 -105 305 0 305 0 0 105 0 105 -95 0 -95 0 0 425 0 425 -92 -1
c-80 -1 -110 -6 -208 -39z" class="svg-elem-59"></path>
<path d="M45850 28451 l-115 -37 -3 -82 -3 -82 96 0 95 0 0 -305 0 -305 -95 0
-95 0 0 -105 0 -105 305 0 305 0 0 105 0 105 -95 0 -95 0 0 425 0 425 -92 -1
c-78 -1 -111 -7 -208 -38z" class="svg-elem-60"></path>
<path d="M47336 28480 c-15 -5 -37 -17 -48 -27 -47 -42 -47 -47 -49 -491 -1
-476 -3 -467 76 -507 36 -18 60 -20 225 -20 216 0 250 9 285 80 18 38 19 59
16 455 -3 378 -4 417 -21 450 -30 59 -52 64 -265 67 -104 1 -203 -2 -219 -7z
m263 -204 c8 -9 11 -103 9 -322 l-3 -309 -65 0 -65 0 -3 310 c-1 170 0 315 3
322 6 18 109 17 124 -1z" class="svg-elem-61"></path>
<path d="M48875 28451 l-120 -38 -3 -81 -3 -82 96 0 95 0 0 -305 0 -305 -95 0
-95 0 0 -105 0 -105 305 0 305 0 0 105 0 105 -95 0 -95 0 0 425 0 425 -87 -1
c-73 0 -109 -7 -208 -38z" class="svg-elem-62"></path>
<path d="M50356 28480 c-15 -5 -37 -17 -48 -27 -46 -41 -48 -58 -48 -494 0
-465 0 -462 74 -502 38 -20 55 -22 226 -22 210 0 247 10 285 75 19 34 20 51
20 450 0 557 18 524 -290 527 -104 1 -203 -2 -219 -7z m269 -515 l0 -320 -65
0 -65 0 -3 309 c-2 225 1 312 9 323 9 10 29 13 68 11 l56 -3 0 -320z" class="svg-elem-63"></path>
<path d="M51893 28449 l-123 -40 0 -80 0 -79 95 0 95 0 0 -305 0 -305 -95 0
-95 0 0 -105 0 -105 305 0 305 0 0 105 0 105 -95 0 -95 0 0 425 0 425 -87 0
c-75 -1 -106 -7 -210 -41z" class="svg-elem-64"></path>
<path d="M19162 26750 c-77 -35 -77 -35 -77 -505 0 -473 0 -470 80 -506 42
-18 63 -20 240 -17 177 3 196 5 222 24 63 46 63 47 63 499 0 452 0 453 -63
499 -26 19 -44 21 -225 24 -179 2 -201 1 -240 -18z m293 -505 l0 -320 -65 0
-65 0 -3 310 c-1 170 0 316 3 323 3 9 23 12 67 10 l63 -3 0 -320z" class="svg-elem-65"></path>
<path d="M11606 26663 c-29 -11 -58 -30 -70 -46 -20 -28 -21 -41 -24 -455 -3
-484 -3 -479 73 -517 36 -18 60 -20 230 -20 214 0 239 7 280 75 19 33 20 54
23 418 4 409 -2 474 -41 509 -48 44 -66 48 -247 50 -146 3 -183 0 -224 -14z
m258 -189 c14 -5 16 -43 16 -324 0 -352 4 -330 -66 -330 -20 0 -44 5 -55 10
-18 10 -19 24 -19 318 0 226 3 311 12 320 13 13 85 16 112 6z" class="svg-elem-66"></path>
<path d="M25927 26666 c-98 -36 -97 -31 -97 -513 0 -377 2 -411 19 -449 30
-67 76 -79 291 -79 199 0 237 10 275 75 19 34 20 51 20 450 0 382 -1 418 -18
452 -32 63 -65 73 -272 75 -133 2 -190 -1 -218 -11z m271 -514 l2 -323 -67 3
-68 3 -3 309 c-2 225 1 312 9 323 9 10 29 13 68 11 l56 -3 3 -323z" class="svg-elem-67"></path>
<path d="M29898 26637 l-128 -40 0 -79 0 -78 95 0 95 0 0 -310 0 -310 -95 0
-95 0 0 -100 0 -100 305 0 305 0 0 100 0 100 -90 0 -90 0 0 430 0 430 -87 -1
c-74 -1 -109 -8 -215 -42z" class="svg-elem-68"></path>
<path d="M32720 26670 c-14 -5 -71 -23 -127 -41 l-103 -32 0 -78 0 -79 90 0
90 0 0 -310 0 -310 -90 0 -90 0 0 -100 0 -100 305 0 305 0 0 100 0 100 -95 0
-95 0 0 430 0 430 -82 -1 c-46 0 -94 -4 -108 -9z" class="svg-elem-69"></path>
<path d="M34716 26663 c-29 -11 -58 -30 -70 -46 -20 -28 -21 -41 -24 -455 -3
-484 -3 -479 73 -517 36 -18 60 -20 225 -20 210 0 247 10 285 75 19 34 20 51
20 450 0 399 -1 416 -20 450 -39 66 -68 75 -265 78 -146 2 -183 -1 -224 -15z
m258 -189 c14 -5 16 -43 16 -324 l0 -318 -22 -6 c-35 -9 -77 -7 -99 4 -18 10
-19 24 -19 318 0 226 3 311 12 320 13 13 85 16 112 6z" class="svg-elem-70"></path>
<path d="M36573 26638 l-123 -39 0 -80 0 -79 90 0 90 0 0 -310 0 -310 -90 0
-90 0 0 -100 0 -100 305 0 305 0 0 100 0 100 -95 0 -95 0 0 430 0 430 -87 -1
c-73 -1 -109 -8 -210 -41z" class="svg-elem-71"></path>
<path d="M38228 26637 l-128 -40 0 -79 0 -78 95 0 95 0 0 -310 0 -310 -95 0
-95 0 0 -100 0 -100 305 0 305 0 0 100 0 99 -92 3 -93 3 -3 428 -2 427 -83 -1
c-67 -1 -105 -8 -209 -42z" class="svg-elem-72"></path>
<path d="M41303 26669 c-51 -12 -90 -49 -103 -100 -7 -25 -10 -184 -8 -442 3
-378 4 -404 23 -434 36 -61 67 -68 280 -68 226 0 254 8 285 77 18 40 20 68 20
448 0 401 0 406 -22 450 -34 67 -79 79 -278 78 -85 0 -174 -4 -197 -9z m241
-195 c14 -5 16 -43 16 -324 0 -281 -2 -319 -16 -324 -20 -8 -62 -8 -91 0 l-23
6 0 318 c0 245 3 319 13 323 18 8 83 8 101 1z" class="svg-elem-73"></path>
<path d="M42821 26670 c-18 -4 -45 -17 -60 -27 -55 -41 -56 -46 -59 -461 -3
-431 1 -476 49 -517 44 -37 66 -40 264 -40 160 0 184 2 220 20 75 38 75 35 75
505 0 464 0 464 -70 505 -31 18 -54 20 -210 22 -96 1 -190 -2 -209 -7z m240
-200 c18 -10 19 -24 19 -320 0 -296 -1 -310 -19 -320 -22 -11 -64 -13 -98 -4
l-23 6 0 318 c0 245 3 319 13 323 22 9 88 7 108 -3z" class="svg-elem-74"></path>
<path d="M44333 26671 c-47 -12 -80 -36 -100 -74 -16 -29 -18 -69 -18 -447 0
-399 1 -416 20 -450 41 -68 66 -75 285 -75 178 0 198 2 230 20 72 43 71 34 71
505 -1 472 1 462 -71 505 -31 18 -54 20 -210 22 -96 1 -190 -2 -207 -6z m241
-207 c14 -13 16 -56 16 -319 0 -291 -1 -305 -19 -315 -11 -5 -34 -10 -51 -10
-17 0 -40 5 -51 10 -18 10 -19 24 -19 320 0 284 1 310 18 319 26 16 89 13 106
-5z" class="svg-elem-75"></path>
<path d="M45843 26671 c-47 -12 -80 -36 -100 -74 -16 -28 -18 -70 -21 -382 -4
-405 0 -481 32 -527 39 -58 59 -63 276 -63 178 0 198 2 230 20 70 41 70 41 70
505 0 464 0 464 -70 505 -31 18 -54 20 -210 22 -96 1 -190 -2 -207 -6z m245
-203 c9 -9 12 -94 12 -320 0 -294 -1 -308 -19 -318 -11 -5 -34 -10 -51 -10
-17 0 -40 5 -51 10 -18 10 -19 24 -19 318 0 226 3 311 12 320 7 7 33 12 58 12
25 0 51 -5 58 -12z" class="svg-elem-76"></path>
<path d="M47355 26671 c-48 -12 -75 -30 -95 -64 -19 -30 -20 -54 -20 -457 0
-404 1 -427 20 -457 35 -58 66 -67 250 -71 254 -6 309 15 330 127 13 72 13
745 -1 809 -12 59 -47 95 -104 111 -44 12 -332 13 -380 2z m247 -209 c4 -4 7
-148 6 -318 l-3 -309 -45 -6 c-25 -4 -55 -2 -68 2 l-22 9 2 312 3 312 25 6
c32 8 91 3 102 -8z" class="svg-elem-77"></path>
<path d="M48863 26670 c-18 -4 -44 -15 -59 -24 -52 -35 -54 -50 -54 -503 0
-397 1 -420 20 -450 37 -62 62 -68 280 -68 219 0 244 7 285 75 19 33 20 54 23
427 2 257 -1 406 -8 432 -16 62 -52 98 -111 110 -56 12 -327 13 -376 1z m238
-200 c18 -10 19 -24 19 -320 0 -296 -1 -310 -19 -320 -11 -5 -34 -10 -51 -10
-17 0 -40 5 -51 10 -18 10 -19 24 -19 320 0 284 1 310 18 319 22 14 78 14 103
1z" class="svg-elem-78"></path>
<path d="M50490 26670 c-14 -5 -71 -23 -127 -41 l-103 -32 0 -78 0 -79 95 0
95 0 -2 -307 -3 -308 -92 -3 -93 -3 0 -99 0 -100 305 0 305 0 0 100 0 99 -92
3 -93 3 -3 428 -2 427 -83 -1 c-45 0 -93 -4 -107 -9z" class="svg-elem-79"></path>
<path d="M51935 26650 c-49 -17 -107 -35 -127 -40 l-38 -11 0 -79 0 -80 95 0
95 0 0 -305 0 -305 -95 0 -95 0 0 -105 0 -105 305 0 305 0 0 100 0 99 -92 3
-93 3 -3 428 -2 427 -83 0 c-63 -1 -102 -7 -172 -30z" class="svg-elem-80"></path>
<path d="M8007 24860 c-60 -11 -91 -31 -114 -73 -16 -29 -18 -69 -18 -447 0
-382 1 -418 18 -452 33 -65 63 -73 287 -73 213 0 234 5 274 58 20 28 21 40 24
453 3 406 2 425 -17 463 -31 60 -75 73 -256 77 -82 2 -172 -1 -198 -6z m241
-514 c2 -225 -1 -312 -9 -323 -9 -10 -29 -13 -68 -11 l-56 3 -3 310 c-1 170 0
316 3 323 3 9 23 12 67 10 l63 -3 3 -309z" class="svg-elem-81"></path>
<path d="M13053 24827 l-133 -42 0 -77 0 -78 90 0 90 0 0 -310 0 -310 -90 0
-90 0 0 -100 0 -100 305 0 305 0 0 100 0 100 -95 0 -95 0 0 430 0 430 -77 -1
c-63 0 -104 -8 -210 -42z" class="svg-elem-82"></path>
<path d="M23847 24860 c-27 -5 -60 -16 -73 -25 -53 -35 -55 -50 -52 -510 3
-412 4 -424 24 -452 40 -53 61 -58 274 -58 213 0 234 5 274 58 20 28 21 40 24
455 3 484 3 479 -73 517 -34 16 -64 20 -195 22 -85 1 -177 -2 -203 -7z m238
-525 l0 -320 -53 -3 c-31 -2 -60 2 -68 9 -11 9 -14 66 -14 319 0 168 3 310 7
314 4 4 34 6 68 4 l60 -3 0 -320z" class="svg-elem-83"></path>
<path d="M29143 24827 l-133 -41 0 -78 0 -78 95 0 95 0 0 -310 0 -310 -95 0
-95 0 0 -100 0 -100 305 0 305 0 0 100 0 100 -95 0 -95 0 0 430 0 430 -77 -1
c-62 0 -105 -9 -210 -42z" class="svg-elem-84"></path>
<path d="M32281 24860 c-53 -11 -85 -31 -108 -67 -17 -25 -18 -63 -18 -453 0
-387 2 -428 18 -457 33 -62 58 -68 282 -68 233 0 253 6 286 80 19 42 19 67 17
459 -3 401 -4 415 -24 443 -40 55 -83 67 -254 70 -85 1 -175 -2 -199 -7z m237
-522 l-3 -323 -60 0 -60 0 -3 323 -2 322 65 0 65 0 -2 -322z" class="svg-elem-85"></path>
<path d="M34597 24860 c-27 -5 -60 -16 -73 -25 -52 -34 -54 -50 -54 -503 l0
-419 23 -34 c40 -59 60 -64 277 -64 213 0 234 5 274 58 20 28 21 40 24 455 2
391 1 430 -15 462 -31 60 -73 73 -252 76 -86 2 -178 -1 -204 -6z m238 -525 l0
-320 -65 0 -65 0 -3 310 c-1 170 0 316 3 323 3 9 23 12 67 10 l63 -3 0 -320z" class="svg-elem-86"></path>
<path d="M36508 24827 l-128 -42 0 -77 0 -78 95 0 95 0 0 -310 0 -310 -95 0
-95 0 0 -100 0 -100 305 0 305 0 0 100 0 100 -95 0 -95 0 0 430 0 430 -82 -1
c-68 -1 -106 -9 -210 -42z" class="svg-elem-87"></path>
<path d="M38208 24827 l-128 -40 0 -79 0 -78 90 0 90 0 0 -310 0 -310 -90 0
-90 0 0 -100 0 -100 305 0 305 0 0 100 0 100 -95 0 -95 0 0 430 0 430 -82 -1
c-68 -1 -107 -9 -210 -42z" class="svg-elem-88"></path>
<path d="M41325 24827 l-130 -43 -3 -77 -3 -77 96 0 95 0 0 -310 0 -310 -95 0
-95 0 0 -100 0 -100 305 0 305 0 0 100 0 100 -90 0 -90 0 -2 428 -3 427 -80 2
c-70 2 -97 -4 -210 -40z" class="svg-elem-89"></path>
<path d="M42838 24827 l-128 -41 0 -78 0 -78 90 0 90 0 0 -310 0 -310 -90 0
-90 0 0 -100 0 -100 305 0 305 0 0 100 0 100 -95 0 -95 0 0 430 0 430 -82 -1
c-68 -1 -107 -9 -210 -42z" class="svg-elem-90"></path>
<path d="M44347 24860 c-60 -11 -91 -31 -114 -73 -16 -29 -18 -71 -21 -415 -4
-437 0 -474 53 -521 44 -38 82 -44 286 -39 178 3 205 10 243 61 20 28 21 40
24 455 2 399 1 429 -16 462 -32 61 -73 73 -251 76 -86 2 -178 -1 -204 -6z
m241 -514 c2 -225 -1 -312 -9 -323 -9 -10 -29 -13 -68 -11 l-56 3 -3 310 c-1
170 0 316 3 323 3 9 23 12 67 10 l63 -3 3 -309z" class="svg-elem-91"></path>
<path d="M45858 24827 l-128 -41 0 -78 0 -78 95 0 95 0 0 -310 0 -310 -95 0
-95 0 0 -100 0 -100 305 0 305 0 0 100 0 100 -95 0 -95 0 0 430 0 430 -82 -1
c-68 -1 -107 -9 -210 -42z" class="svg-elem-92"></path>
<path d="M47373 24828 l-133 -41 0 -79 0 -78 95 0 95 0 0 -310 0 -310 -95 0
-95 0 0 -100 0 -100 305 0 305 0 0 100 0 100 -95 0 -95 0 0 430 0 430 -77 -1
c-62 0 -105 -9 -210 -41z" class="svg-elem-93"></path>
<path d="M48883 24828 l-133 -41 0 -79 0 -78 95 0 95 0 0 -310 0 -310 -95 0
-95 0 0 -100 0 -100 305 0 305 0 0 100 0 100 -95 0 -95 0 0 430 0 430 -77 -1
c-62 0 -105 -9 -210 -41z" class="svg-elem-94"></path>
<path d="M50388 24827 l-128 -41 0 -78 0 -77 93 -3 92 -3 0 -305 0 -305 -92
-3 -93 -3 0 -99 0 -100 305 0 305 0 0 100 0 99 -92 3 -93 3 -3 428 -2 427 -83
-1 c-67 -1 -106 -9 -209 -42z" class="svg-elem-95"></path>
<path d="M51899 24860 c-60 -10 -93 -33 -113 -75 -14 -28 -16 -90 -16 -447 0
-455 0 -456 63 -502 27 -20 42 -21 230 -21 228 0 253 6 289 64 23 36 23 37 23
456 0 404 -1 421 -20 455 -36 61 -78 74 -255 77 -85 1 -176 -2 -201 -7z m236
-525 l0 -320 -53 -3 c-31 -2 -60 2 -68 9 -11 9 -14 66 -14 319 0 168 3 310 7
314 4 4 34 6 68 4 l60 -3 0 -320z" class="svg-elem-96"></path>
<path d="M6335 23038 c-16 -6 -38 -18 -49 -27 -44 -38 -46 -59 -46 -488 0
-449 0 -451 63 -497 27 -20 42 -21 235 -21 232 0 251 4 286 65 20 34 21 50 21
455 0 477 1 470 -78 506 -36 16 -66 18 -222 18 -99 0 -193 -5 -210 -11z m270
-513 l0 -320 -59 -3 c-41 -2 -62 1 -67 10 -10 15 -12 598 -3 623 5 13 19 15
68 13 l61 -3 0 -320z" class="svg-elem-97"></path>
<path d="M9240 23011 l-115 -37 -3 -82 -3 -82 91 0 90 0 0 -305 0 -305 -90 0
-90 0 0 -100 0 -100 305 0 305 0 0 100 0 100 -95 0 -95 0 0 425 0 425 -92 -1
c-78 -1 -111 -7 -208 -38z" class="svg-elem-98"></path>
<path d="M21613 23031 c-78 -36 -78 -33 -81 -476 -4 -415 1 -476 41 -513 40
-37 91 -44 289 -40 171 3 189 5 215 24 58 43 58 44 61 479 3 422 0 466 -42
503 -38 35 -83 42 -265 42 -151 0 -182 -3 -218 -19z m287 -506 l0 -326 -62 3
-63 3 -3 310 c-1 170 0 315 3 322 3 9 25 13 65 13 l60 0 0 -325z" class="svg-elem-99"></path>
<path d="M28461 23036 c-41 -15 -67 -45 -81 -94 -14 -51 -13 -785 1 -837 26
-94 69 -108 322 -103 170 3 188 5 214 24 58 43 58 44 61 479 3 422 0 466 -42
503 -11 11 -36 24 -55 31 -47 15 -375 13 -420 -3z m279 -511 l0 -326 -62 3
-63 3 -3 310 c-1 170 0 315 3 322 3 9 25 13 65 13 l60 0 0 -325z" class="svg-elem-100"></path>
<path d="M31983 23031 c-79 -37 -78 -29 -78 -506 0 -558 -22 -520 307 -520
193 0 208 1 235 21 63 46 63 47 63 499 0 452 0 453 -63 499 -26 19 -44 21
-225 24 -177 2 -201 0 -239 -17z m291 -197 c9 -24 7 -607 -3 -622 -5 -9 -26
-12 -67 -10 l-59 3 -3 310 c-1 170 0 315 3 322 7 20 121 17 129 -3z" class="svg-elem-101"></path>
<path d="M34588 23045 c-2 -3 -54 -20 -114 -38 l-109 -34 -3 -81 -3 -82 96 0
95 0 0 -305 0 -305 -95 0 -95 0 0 -100 0 -100 305 0 305 0 0 100 0 100 -95 0
-95 0 0 425 0 425 -93 0 c-52 0 -96 -2 -99 -5z" class="svg-elem-102"></path>
<path d="M36480 23018 c-52 -16 -106 -33 -120 -37 -24 -7 -25 -12 -28 -89 l-3
-82 96 0 95 0 0 -305 0 -305 -95 0 -95 0 0 -100 0 -100 305 0 305 0 0 100 0
100 -95 0 -95 0 0 425 0 425 -87 -1 c-69 0 -108 -7 -183 -31z" class="svg-elem-103"></path>
<path d="M38145 23038 c-43 -15 -56 -28 -76 -73 -17 -37 -19 -75 -19 -440 0
-553 -19 -520 305 -520 324 0 300 -43 300 521 0 423 0 433 -21 461 -39 53 -62
58 -269 60 -117 1 -202 -2 -220 -9z m273 -516 l2 -323 -62 3 -63 3 -3 310 c-1
170 0 316 3 323 3 9 22 12 62 10 l58 -3 3 -323z" class="svg-elem-104"></path>
<path d="M41286 23040 c-15 -5 -37 -17 -48 -27 -46 -41 -48 -58 -48 -490 0
-449 0 -451 63 -497 27 -20 42 -21 241 -21 235 0 248 3 283 68 16 29 18 69 18
452 0 477 1 470 -78 506 -37 16 -66 18 -222 18 -99 0 -193 -5 -209 -9z m269
-515 l0 -320 -55 -3 c-43 -3 -57 1 -67 14 -17 23 -19 585 -2 615 9 17 19 20
67 17 l57 -3 0 -320z" class="svg-elem-105"></path>
<path d="M42830 23011 l-115 -37 -3 -82 -3 -82 91 0 90 0 0 -305 0 -305 -90 0
-90 0 0 -100 0 -100 305 0 305 0 0 100 0 100 -95 0 -95 0 0 425 0 425 -92 -1
c-78 -1 -111 -7 -208 -38z" class="svg-elem-106"></path>
<path d="M44293 23031 c-79 -37 -78 -29 -78 -506 0 -477 -1 -470 78 -506 36
-16 67 -19 226 -19 165 0 189 2 226 20 75 36 75 34 75 503 0 454 0 455 -63
501 -26 19 -44 21 -225 24 -177 2 -201 0 -239 -17z m292 -506 l0 -320 -65 0
-65 0 -3 310 c-1 170 0 316 3 323 3 9 23 12 67 10 l63 -3 0 -320z" class="svg-elem-107"></path>
<path d="M45803 23031 c-79 -37 -78 -29 -78 -506 0 -404 1 -421 20 -455 37
-63 66 -70 277 -70 221 0 257 9 288 71 19 36 20 61 20 454 0 556 21 518 -290
522 -176 3 -199 1 -237 -16z m292 -506 l0 -320 -65 0 -65 0 -3 310 c-1 170 0
316 3 323 3 9 23 12 67 10 l63 -3 0 -320z" class="svg-elem-108"></path>
<path d="M47314 23031 c-74 -34 -74 -32 -74 -506 0 -474 0 -472 74 -506 35
-16 67 -19 226 -19 159 0 191 3 226 19 74 34 74 32 74 506 0 474 0 472 -74
506 -35 16 -67 19 -226 19 -159 0 -191 -3 -226 -19z m291 -506 l0 -320 -65 0
-65 0 -3 310 c-1 170 0 316 3 323 3 9 23 12 67 10 l63 -3 0 -320z" class="svg-elem-109"></path>
<path d="M48835 23036 c-16 -7 -41 -26 -55 -41 l-25 -27 -3 -429 c-3 -489 -4
-486 72 -520 35 -16 68 -19 226 -19 173 0 189 2 230 23 78 39 80 52 77 517 -2
367 -3 398 -21 434 -33 66 -69 76 -286 75 -132 0 -194 -4 -215 -13z m280 -511
l0 -320 -65 0 -65 0 -3 310 c-1 170 0 316 3 323 3 9 23 12 67 10 l63 -3 0
-320z" class="svg-elem-110"></path>
<path d="M50380 23011 l-115 -37 -3 -82 -3 -82 96 0 95 0 0 -305 0 -305 -95 0
-95 0 0 -100 0 -100 305 0 305 0 0 100 0 100 -95 0 -95 0 0 425 0 425 -92 -1
c-78 -1 -112 -7 -208 -38z" class="svg-elem-111"></path>
<path d="M51851 23032 c-19 -9 -44 -30 -55 -45 -20 -28 -21 -39 -21 -465 0
-421 1 -438 20 -464 38 -52 81 -60 296 -56 216 3 232 8 266 71 16 29 18 69 18
452 0 477 1 470 -78 506 -36 16 -67 19 -227 19 -157 0 -190 -3 -219 -18z m284
-507 l0 -320 -65 0 -65 0 -3 300 c-1 165 0 310 3 323 5 21 10 23 68 20 l62 -3
0 -320z" class="svg-elem-112"></path>
<path d="M5767 21226 c-98 -36 -97 -31 -97 -513 0 -375 2 -411 19 -449 32 -70
63 -79 281 -79 210 0 247 10 285 75 19 34 20 51 20 450 0 382 -1 418 -18 452
-32 63 -65 73 -272 75 -133 2 -190 -1 -218 -11z m271 -514 l2 -323 -67 3 -68
3 -3 309 c-2 225 1 312 9 323 9 10 29 13 68 11 l56 -3 3 -323z" class="svg-elem-113"></path>
<path d="M8155 21235 c-5 -2 -63 -20 -127 -40 l-118 -36 0 -79 0 -80 95 0 95
0 0 -305 0 -304 -92 -3 -93 -3 0 -100 0 -100 303 -3 302 -2 0 105 0 105 -95 0
-95 0 0 425 0 425 -82 -1 c-46 0 -87 -2 -93 -4z" class="svg-elem-114"></path>
<path d="M20685 21210 c-49 -17 -107 -35 -127 -40 l-38 -11 0 -79 0 -80 95 0
95 0 0 -305 0 -304 -92 -3 -93 -3 0 -100 0 -100 303 -3 302 -2 0 105 0 105
-95 0 -95 0 0 425 0 425 -82 0 c-64 -1 -103 -7 -173 -30z" class="svg-elem-115"></path>
<path d="M28218 21225 c-35 -12 -52 -24 -70 -53 -23 -37 -23 -39 -26 -427 -4
-435 0 -478 49 -519 42 -35 80 -41 274 -41 156 0 173 2 212 22 74 40 74 45 71
524 -3 460 -2 449 -71 486 -44 25 -367 30 -439 8z m271 -199 c8 -9 11 -103 9
-322 l-3 -309 -67 -3 -68 -3 0 319 c0 175 3 322 7 325 12 13 110 7 122 -7z" class="svg-elem-116"></path>
<path d="M31923 21231 c-52 -13 -80 -37 -97 -83 -15 -38 -17 -93 -14 -455 3
-398 4 -413 24 -440 42 -58 81 -68 264 -68 188 0 228 6 268 40 50 42 53 73 50
510 -3 360 -5 403 -21 432 -32 60 -61 67 -262 70 -99 1 -195 -2 -212 -6z m255
-518 l2 -323 -65 0 -65 0 0 318 c0 175 3 322 7 326 4 4 32 6 63 4 l55 -3 3
-322z" class="svg-elem-117"></path>
<path d="M34565 21235 c-5 -2 -63 -20 -127 -40 l-118 -36 0 -80 0 -79 95 0 95
0 0 -305 0 -305 -95 0 -95 0 0 -105 0 -105 305 0 305 0 0 105 0 105 -95 0 -95
0 0 425 0 425 -82 -1 c-46 0 -87 -2 -93 -4z" class="svg-elem-118"></path>
<path d="M36407 21226 c-98 -36 -97 -31 -97 -513 1 -557 -16 -528 300 -528
210 0 247 10 285 75 19 34 20 51 20 450 0 382 -1 418 -18 452 -32 63 -65 73
-272 75 -133 2 -190 -1 -218 -11z m271 -514 l2 -323 -67 3 -68 3 -3 309 c-2
225 1 312 9 323 9 10 29 13 68 11 l56 -3 3 -323z" class="svg-elem-119"></path>
<path d="M38173 21199 l-123 -40 0 -79 0 -80 95 0 95 0 0 -305 0 -305 -95 0
-95 0 0 -105 0 -105 305 0 305 0 0 105 0 105 -95 0 -95 0 0 425 0 425 -87 -1
c-74 0 -108 -7 -210 -40z" class="svg-elem-120"></path>
<path d="M41287 21226 c-98 -36 -97 -31 -97 -518 0 -468 0 -465 75 -503 36
-18 60 -20 225 -20 210 0 247 10 285 75 19 34 20 51 20 450 0 382 -1 418 -18
452 -32 63 -65 73 -272 75 -133 2 -190 -1 -218 -11z m268 -511 l0 -320 -61 -3
c-57 -3 -62 -1 -68 20 -3 13 -6 154 -6 314 0 218 3 293 12 302 8 8 34 12 68
10 l55 -3 0 -320z" class="svg-elem-121"></path>
<path d="M42833 21199 l-123 -40 0 -79 0 -80 90 0 90 0 0 -305 0 -305 -90 0
-90 0 0 -105 0 -105 303 2 302 3 3 103 3 102 -96 0 -95 0 0 425 0 425 -87 -1
c-74 0 -108 -7 -210 -40z" class="svg-elem-122"></path>
<path d="M44343 21199 l-123 -40 0 -79 0 -80 90 0 90 0 0 -305 0 -305 -90 0
-90 0 0 -105 0 -105 305 0 305 0 0 105 0 105 -95 0 -95 0 0 425 0 425 -87 -1
c-74 0 -108 -7 -210 -40z" class="svg-elem-123"></path>
<path d="M45853 21199 l-123 -40 0 -79 0 -80 95 0 95 0 0 -305 0 -305 -95 0
-95 0 0 -105 0 -105 305 0 305 0 0 105 0 105 -95 0 -95 0 0 425 0 425 -87 -1
c-74 0 -108 -7 -210 -40z" class="svg-elem-124"></path>
<path d="M47340 21228 c-19 -5 -43 -17 -54 -26 -45 -41 -46 -48 -46 -489 0
-473 0 -470 75 -508 36 -18 60 -20 225 -20 165 0 189 2 225 20 76 38 76 32 73
522 l-3 432 -28 29 c-17 17 -48 35 -72 41 -54 14 -347 13 -395 -1z m259 -202
c8 -9 11 -103 9 -322 l-3 -309 -65 0 -65 0 -3 309 c-2 219 1 313 9 322 7 8 31
14 59 14 28 0 52 -6 59 -14z" class="svg-elem-125"></path>
<path d="M48875 21200 l-120 -38 -3 -81 -3 -81 90 0 c50 0 91 -4 93 -10 2 -5
2 -143 0 -305 l-3 -295 -89 0 -90 0 0 -105 0 -105 305 0 305 0 0 105 0 105
-95 0 -95 0 0 425 0 425 -87 -1 c-72 -1 -110 -8 -208 -39z" class="svg-elem-126"></path>
<path d="M50360 21229 c-19 -6 -43 -18 -54 -27 -44 -39 -46 -59 -46 -494 0
-468 0 -465 75 -503 36 -18 60 -20 225 -20 210 0 247 10 285 75 19 34 20 51
20 450 0 462 0 465 -68 505 -28 18 -53 20 -217 22 -106 1 -200 -2 -220 -8z
m265 -519 l0 -315 -62 -3 -63 -3 0 321 0 321 63 -3 62 -3 0 -315z" class="svg-elem-127"></path>
<path d="M51870 21229 c-19 -6 -43 -18 -54 -27 -44 -39 -46 -59 -46 -494 0
-468 0 -465 75 -503 36 -18 60 -20 230 -20 214 0 239 7 280 75 19 34 20 51 20
450 0 462 0 465 -68 505 -28 18 -53 20 -217 22 -105 1 -200 -3 -220 -8z m258
-197 c9 -7 12 -78 10 -323 l-3 -314 -65 0 -65 0 -3 309 c-2 219 1 313 9 322
12 15 96 19 117 6z" class="svg-elem-128"></path>
<path d="M6378 19387 l-128 -41 0 -78 0 -78 95 0 95 0 -2 -307 -3 -308 -92 -3
-93 -3 0 -99 0 -100 305 0 305 0 0 100 0 100 -95 0 -95 0 0 430 0 430 -82 -1
c-68 -1 -107 -9 -210 -42z" class="svg-elem-129"></path>
<path d="M9241 19420 c-24 -5 -55 -17 -68 -25 -51 -34 -53 -51 -53 -503 l0
-419 23 -34 c40 -59 60 -64 277 -64 213 0 234 5 274 58 20 28 21 40 24 455 3
484 3 479 -73 517 -34 16 -64 20 -200 22 -88 1 -180 -2 -204 -7z m247 -519 c2
-245 -1 -316 -10 -323 -15 -9 -89 -11 -112 -2 -14 5 -16 43 -16 318 0 172 3
316 7 320 4 4 34 6 68 4 l60 -3 3 -314z" class="svg-elem-130"></path>
<path d="M21712 19389 c-68 -21 -128 -41 -133 -44 -5 -4 -9 -40 -9 -81 l0 -74
95 0 95 0 0 -310 0 -310 -95 0 -96 0 3 -97 3 -98 303 -3 302 -2 0 100 0 100
-90 0 -90 0 0 430 0 430 -82 -1 c-67 0 -106 -8 -206 -40z" class="svg-elem-131"></path>
<path d="M28518 19387 l-128 -40 0 -79 0 -78 90 0 90 0 0 -310 0 -310 -90 0
-90 0 0 -100 0 -100 305 0 305 0 0 100 0 100 -95 0 -95 0 0 430 0 430 -82 -1
c-68 -1 -106 -8 -210 -42z" class="svg-elem-132"></path>
<path d="M32053 19390 c-67 -21 -127 -41 -133 -45 -5 -3 -10 -40 -10 -81 l0
-74 95 0 95 0 0 -310 0 -310 -95 0 -95 0 0 -100 0 -100 305 0 305 0 0 100 0
99 -92 3 -93 3 -3 428 -2 427 -78 -1 c-61 0 -103 -8 -199 -39z" class="svg-elem-133"></path>
<path d="M34488 19387 l-128 -41 0 -78 0 -78 95 0 95 0 -2 -307 -3 -308 -92
-3 -93 -3 0 -99 0 -100 305 0 305 0 0 100 0 99 -92 3 -93 3 -3 428 -2 427 -83
-1 c-67 -1 -106 -9 -209 -42z" class="svg-elem-134"></path>
<path d="M36458 19387 l-128 -40 0 -79 0 -78 95 0 95 0 -2 -307 -3 -308 -92
-3 -93 -3 0 -99 0 -100 305 0 305 0 0 100 0 99 -92 3 -93 3 -3 428 -2 427 -83
-1 c-67 -1 -106 -9 -209 -42z" class="svg-elem-135"></path>
<path d="M38275 19415 c-22 -8 -79 -26 -127 -41 l-88 -26 0 -79 0 -79 90 0 90
0 0 -310 0 -310 -90 0 -90 0 0 -100 0 -100 305 0 305 0 0 100 0 100 -95 0 -95
0 0 430 0 430 -82 -1 c-46 0 -101 -7 -123 -14z" class="svg-elem-136"></path>
<path d="M41311 19420 c-61 -13 -87 -33 -105 -82 -15 -38 -16 -93 -14 -459 3
-460 2 -449 71 -486 27 -16 59 -18 227 -18 219 0 249 7 285 68 19 30 20 56 23
422 4 480 1 498 -88 546 -30 16 -332 23 -399 9z m247 -522 l-3 -323 -53 -3
c-31 -2 -60 2 -68 9 -11 9 -14 64 -14 309 0 164 3 305 6 314 5 12 21 16 70 16
l64 0 -2 -322z" class="svg-elem-137"></path>
<path d="M42823 19421 c-43 -11 -79 -35 -100 -68 -17 -25 -18 -63 -18 -453 0
-561 -21 -525 305 -525 178 0 198 2 230 20 71 41 71 44 70 506 0 468 0 466
-76 504 -34 17 -62 20 -209 22 -93 1 -185 -2 -202 -6z m251 -217 c4 -9 6 -151
6 -315 -1 -334 2 -319 -74 -319 -70 0 -66 -21 -66 324 0 172 3 316 7 319 3 4
32 7 64 7 43 0 58 -4 63 -16z" class="svg-elem-138"></path>
<path d="M44348 19387 l-128 -40 0 -79 0 -78 90 0 90 0 0 -310 0 -310 -90 0
-90 0 0 -100 0 -100 305 0 305 0 0 103 0 102 -72 -2 c-40 -2 -83 0 -95 2 l-23
5 0 425 0 425 -82 -1 c-68 -1 -106 -8 -210 -42z" class="svg-elem-139"></path>
<path d="M45838 19417 c-55 -16 -73 -29 -96 -71 -15 -27 -17 -76 -20 -381 -4
-405 0 -481 32 -527 39 -58 59 -63 276 -63 178 0 198 2 230 20 70 41 70 41 70
505 0 470 0 467 -75 505 -34 17 -63 20 -205 22 -113 2 -180 -2 -212 -10z m260
-511 c2 -219 -1 -313 -9 -322 -14 -17 -100 -19 -117 -2 -13 13 -18 619 -5 632
4 4 34 6 68 4 l60 -3 3 -309z" class="svg-elem-140"></path>
<path d="M47348 19417 c-55 -16 -73 -29 -96 -71 -15 -28 -17 -76 -17 -446 0
-399 1 -416 20 -450 41 -68 66 -75 285 -75 218 0 243 6 280 68 19 30 20 53 20
457 0 409 -1 426 -20 458 -34 55 -73 66 -260 69 -114 2 -180 -1 -212 -10z
m260 -511 c2 -219 -1 -313 -9 -322 -14 -17 -100 -19 -117 -2 -13 13 -18 619
-5 632 4 4 34 6 68 4 l60 -3 3 -309z" class="svg-elem-141"></path>
<path d="M48878 19387 l-128 -40 0 -79 0 -78 95 0 95 0 -2 -307 -3 -308 -92
-3 -93 -3 0 -99 0 -100 305 0 305 0 0 100 0 99 -92 3 -93 3 -3 428 -2 427 -83
-1 c-67 -1 -105 -8 -209 -42z" class="svg-elem-142"></path>
<path d="M50368 19417 c-109 -31 -108 -25 -108 -519 0 -462 0 -462 70 -503 32
-18 52 -20 230 -20 224 0 254 8 287 73 17 34 18 70 18 452 0 399 -1 416 -20
450 -39 66 -69 74 -260 77 -117 2 -185 -1 -217 -10z m260 -516 c2 -245 -1
-316 -10 -323 -20 -12 -103 -9 -116 4 -13 13 -18 619 -5 632 4 4 34 6 68 4
l60 -3 3 -314z" class="svg-elem-143"></path>
<path d="M51878 19417 c-109 -31 -108 -25 -108 -519 0 -462 0 -462 70 -503 32
-18 52 -20 230 -20 224 0 254 8 287 73 16 34 18 73 21 421 2 249 -1 402 -8
436 -11 53 -32 80 -80 106 -36 19 -349 23 -412 6z m260 -516 c2 -245 -1 -316
-10 -323 -20 -12 -103 -9 -116 4 -13 13 -18 619 -5 632 4 4 34 6 68 4 l60 -3
3 -314z" class="svg-elem-144"></path>
<path d="M23878 17611 c-64 -9 -99 -28 -125 -68 -16 -25 -18 -65 -21 -433 -3
-424 0 -463 40 -506 34 -38 91 -46 284 -42 200 3 229 11 261 71 16 29 18 72
21 422 2 261 0 407 -8 441 -12 58 -40 89 -91 105 -45 13 -288 20 -361 10z
m220 -523 l-3 -323 -60 0 -60 0 -3 323 -2 322 65 0 65 0 -2 -322z" class="svg-elem-145"></path>
<path d="M29154 17611 c-71 -12 -105 -30 -128 -71 -20 -34 -21 -52 -23 -435
-2 -358 -1 -405 15 -450 13 -37 26 -54 52 -70 32 -18 52 -20 235 -20 218 0
239 4 279 58 21 28 21 38 21 462 0 422 -1 434 -21 462 -38 52 -79 64 -236 68
-79 2 -166 0 -194 -4z m224 -506 c1 -165 0 -310 -3 -323 -5 -21 -10 -23 -68
-20 l-62 3 -3 310 c-1 170 0 316 3 323 3 9 23 12 67 10 l63 -3 3 -300z" class="svg-elem-146"></path>
<path d="M32295 17576 l-130 -42 -3 -77 -3 -77 96 0 95 0 0 -310 0 -310 -95 0
-95 0 0 -100 0 -100 305 0 305 0 0 100 0 100 -95 0 -95 0 0 430 0 430 -77 -1
c-62 -1 -104 -9 -208 -43z" class="svg-elem-147"></path>
<path d="M34605 17576 l-130 -42 -3 -77 -3 -77 96 0 95 0 0 -310 0 -310 -95 0
-95 0 0 -100 0 -100 305 0 305 0 0 100 0 100 -95 0 -95 0 0 430 0 430 -77 -1
c-62 -1 -104 -9 -208 -43z" class="svg-elem-148"></path>
<path d="M36513 17577 l-133 -41 0 -77 0 -78 93 -3 92 -3 0 -305 0 -305 -92
-3 -93 -3 0 -99 0 -100 305 0 305 0 0 100 0 100 -95 0 -95 0 0 430 0 430 -77
-1 c-61 -1 -108 -10 -210 -42z" class="svg-elem-149"></path>
<path d="M38217 17611 c-33 -5 -71 -17 -85 -28 -57 -42 -57 -41 -57 -498 0
-477 -1 -470 78 -506 36 -16 67 -19 218 -19 182 0 227 7 265 42 42 37 45 80
42 510 -3 393 -4 408 -24 435 -38 52 -79 64 -236 68 -79 2 -169 0 -201 -4z
m221 -523 l-3 -323 -60 0 -60 0 -3 323 -2 322 65 0 65 0 -2 -322z" class="svg-elem-150"></path>
<path d="M41338 17611 c-64 -9 -99 -28 -125 -68 -17 -25 -18 -63 -18 -459 0
-423 0 -433 21 -461 39 -52 63 -58 261 -61 214 -4 251 3 290 55 l28 36 0 433
c0 421 -1 433 -21 461 -38 52 -79 64 -236 68 -79 2 -169 0 -200 -4z m217 -526
l0 -320 -60 0 -60 0 -3 323 -2 323 62 -3 63 -3 0 -320z" class="svg-elem-151"></path>
<path d="M42843 17577 l-133 -42 0 -77 0 -78 90 0 90 0 0 -310 0 -310 -90 0
-90 0 0 -100 0 -100 305 0 305 0 0 100 0 100 -95 0 -95 0 0 430 0 430 -77 -1
c-62 -1 -106 -9 -210 -42z" class="svg-elem-152"></path>
<path d="M44353 17577 l-133 -41 0 -78 0 -78 90 0 90 0 0 -310 0 -310 -90 0
-90 0 0 -100 0 -100 305 0 305 0 0 100 0 100 -95 0 -95 0 0 430 0 430 -77 -1
c-61 -1 -107 -10 -210 -42z" class="svg-elem-153"></path>
<path d="M45863 17577 l-133 -42 0 -77 0 -77 93 -3 92 -3 3 -307 2 -308 -95 0
-95 0 0 -100 0 -100 305 0 305 0 0 100 0 100 -95 0 -95 0 0 430 0 430 -77 -1
c-62 0 -105 -9 -210 -42z" class="svg-elem-154"></path>
<path d="M47385 17611 c-28 -5 -66 -16 -84 -25 -61 -32 -62 -39 -59 -516 l3
-429 30 -31 c43 -45 85 -52 289 -48 206 4 226 10 259 72 21 40 21 49 18 456
-3 475 -2 469 -77 502 -38 17 -72 21 -188 24 -78 1 -164 -1 -191 -5z m223
-506 c1 -165 0 -310 -3 -322 -5 -20 -12 -23 -58 -23 -29 0 -58 5 -65 12 -13
13 -18 619 -5 632 4 4 34 6 68 4 l60 -3 3 -300z" class="svg-elem-155"></path>
<path d="M48895 17611 c-69 -11 -111 -35 -132 -74 -16 -29 -18 -69 -18 -447 0
-561 -21 -525 305 -525 232 0 253 5 286 72 18 35 19 67 19 453 0 400 -1 416
-20 450 -34 58 -76 71 -244 75 -80 2 -169 0 -196 -4z m220 -526 l0 -320 -53
-3 c-31 -2 -60 2 -68 9 -11 9 -14 64 -14 309 0 164 3 306 6 315 5 13 19 15 68
13 l61 -3 0 -320z" class="svg-elem-156"></path>
<path d="M50393 17577 l-133 -42 0 -77 0 -77 93 -3 92 -3 0 -305 0 -305 -92
-3 -93 -3 0 -99 0 -100 305 0 305 0 0 100 0 100 -90 0 -90 0 0 303 c0 166 -3
359 -7 430 l-6 127 -76 -1 c-60 0 -104 -9 -208 -42z" class="svg-elem-157"></path>
<path d="M51903 17577 l-133 -42 0 -77 0 -78 95 0 95 0 0 -310 0 -310 -95 0
-95 0 0 -100 0 -100 305 0 305 0 0 100 0 100 -90 0 -90 0 0 323 c0 178 -3 372
-7 430 l-6 107 -76 -1 c-59 -1 -105 -10 -208 -42z" class="svg-elem-158"></path>
<path d="M7975 17593 c-42 -15 -54 -25 -72 -63 -23 -44 -23 -49 -23 -450 0
-373 2 -408 19 -446 32 -70 64 -79 276 -79 198 0 220 3 264 40 49 42 53 84 49
515 -3 434 -5 441 -76 477 -55 27 -365 31 -437 6z m259 -189 c14 -5 16 -43 16
-325 l0 -319 -65 0 -65 0 0 318 c0 175 3 322 7 325 8 9 86 9 107 1z" class="svg-elem-159"></path>
<path d="M12888 17457 l-128 -40 0 -79 0 -78 90 0 90 0 0 -310 0 -310 -90 0
-90 0 0 -100 0 -100 305 0 305 0 0 100 0 100 -95 0 -95 0 0 430 0 430 -82 -1
c-68 -1 -106 -8 -210 -42z" class="svg-elem-160"></path>
<path d="M25985 15761 l-120 -38 -3 -81 -3 -82 91 0 90 0 0 -305 0 -305 -90 0
-90 0 0 -105 0 -105 303 2 302 3 3 103 3 102 -96 0 -95 0 0 425 0 425 -87 -1
c-73 0 -109 -7 -208 -38z" class="svg-elem-161"></path>
<path d="M29865 15785 c-52 -19 -82 -55 -90 -107 -3 -24 -5 -222 -3 -440 3
-382 4 -398 24 -425 42 -58 81 -68 264 -68 189 0 228 6 269 41 49 41 53 84 49
519 -3 433 -4 436 -71 472 -44 25 -380 31 -442 8z m273 -512 l2 -323 -65 0
-65 0 0 318 c0 175 3 322 7 326 4 4 32 6 63 4 l55 -3 3 -322z" class="svg-elem-162"></path>
<path d="M32584 15790 c-49 -15 -82 -55 -94 -115 -7 -35 -10 -182 -8 -432 3
-355 4 -380 23 -418 31 -62 70 -76 228 -82 142 -6 263 7 302 33 54 35 55 47
55 501 0 397 -1 420 -20 450 -38 64 -54 68 -265 70 -104 1 -204 -2 -221 -7z
m265 -204 c8 -9 11 -103 9 -322 l-3 -309 -65 0 -65 0 -3 310 c-1 170 0 315 3
322 6 18 109 17 124 -1z" class="svg-elem-163"></path>
<path d="M34742 15759 l-123 -40 3 -77 3 -77 93 -3 92 -3 0 -304 0 -305 -95 0
-96 0 3 -102 3 -103 303 -3 302 -2 0 105 0 105 -95 0 -95 0 0 425 0 425 -87
-1 c-74 0 -108 -7 -211 -40z" class="svg-elem-164"></path>
<path d="M36535 15785 c-47 -17 -71 -43 -85 -93 -14 -51 -13 -785 1 -837 26
-94 69 -110 294 -110 210 0 256 13 286 79 17 38 19 72 19 451 0 452 0 453 -63
499 -26 19 -44 21 -220 24 -149 1 -201 -1 -232 -13z m273 -197 c14 -14 17
-604 3 -626 -5 -9 -26 -12 -67 -10 l-59 3 -3 310 c-1 170 0 315 3 322 6 17
107 17 123 1z" class="svg-elem-165"></path>
<path d="M38195 15788 c-43 -15 -74 -47 -86 -87 -6 -23 -9 -183 -7 -448 3
-398 4 -413 24 -440 43 -59 80 -68 279 -68 205 0 242 10 280 75 19 34 20 51
20 455 0 383 -2 423 -18 452 -33 61 -60 68 -272 70 -117 1 -202 -2 -220 -9z
m270 -513 l0 -320 -65 0 -65 0 -3 309 c-2 225 1 312 9 323 9 10 29 13 68 11
l56 -3 0 -320z" class="svg-elem-166"></path>
<path d="M41285 15785 c-93 -34 -96 -51 -93 -539 3 -391 4 -406 24 -433 43
-59 80 -68 279 -68 199 0 236 9 279 68 20 28 21 40 21 455 0 473 1 468 -65
506 -31 19 -54 21 -220 23 -142 2 -194 0 -225 -12z m273 -513 l2 -323 -62 3
-63 3 -3 310 c-1 170 0 316 3 323 3 9 22 12 62 10 l58 -3 3 -323z" class="svg-elem-167"></path>
<path d="M42795 15785 c-22 -8 -41 -15 -42 -15 -1 0 -12 -17 -25 -37 l-23 -38
0 -420 c0 -404 1 -421 20 -455 38 -65 75 -75 280 -75 163 0 184 2 226 21 80
37 80 39 77 526 -3 405 -4 417 -24 445 -39 52 -63 58 -264 60 -143 2 -194 -1
-225 -12z m274 -199 c8 -9 11 -103 9 -322 l-3 -309 -65 0 -65 0 -3 310 c-1
170 0 315 3 322 6 18 109 17 124 -1z" class="svg-elem-168"></path>
<path d="M44319 15791 c-46 -15 -69 -31 -86 -64 -16 -29 -18 -70 -18 -452 0
-404 1 -421 20 -455 38 -65 76 -75 275 -75 212 0 258 12 290 76 19 36 20 60
20 451 0 455 0 456 -63 502 -26 19 -44 21 -220 23 -106 1 -204 -2 -218 -6z
m259 -199 c9 -7 12 -78 10 -323 l-3 -314 -65 0 -65 0 -3 310 c-1 170 0 315 3
322 5 15 102 18 123 5z" class="svg-elem-169"></path>
<path d="M45855 15761 l-120 -38 -3 -81 -3 -82 91 0 c65 0 90 -3 91 -12 1 -12
0 -575 -1 -590 0 -5 -40 -8 -90 -8 l-90 0 0 -105 0 -105 305 0 305 0 0 105 0
105 -95 0 -95 0 0 425 0 425 -87 -1 c-73 0 -109 -7 -208 -38z" class="svg-elem-170"></path>
<path d="M47335 15790 c-17 -5 -44 -23 -60 -40 l-30 -31 -3 -432 c-3 -490 -3
-484 73 -522 36 -18 60 -20 225 -20 165 0 189 2 225 20 75 38 75 34 75 510 0
399 -1 422 -20 452 -38 64 -54 68 -265 70 -104 1 -204 -2 -220 -7z m270 -515
l0 -320 -65 0 -65 0 -3 310 c-1 170 0 316 3 323 3 9 23 12 67 10 l63 -3 0
-320z" class="svg-elem-171"></path>
<path d="M48870 15760 l-115 -39 -3 -80 -3 -81 96 0 95 0 0 -305 0 -305 -95 0
-95 0 0 -105 0 -105 305 0 305 0 0 105 0 105 -95 0 -95 0 0 425 0 425 -92 -1
c-80 -1 -110 -6 -208 -39z" class="svg-elem-172"></path>
<path d="M50356 15790 c-15 -5 -37 -17 -48 -27 -48 -43 -48 -47 -48 -490 0
-472 -1 -467 76 -507 35 -19 57 -21 224 -21 210 0 247 10 285 75 19 34 20 51
20 450 0 557 18 524 -290 527 -104 1 -203 -2 -219 -7z m269 -515 l0 -320 -65
0 -65 0 -3 309 c-2 225 1 312 9 323 9 10 29 13 68 11 l56 -3 0 -320z" class="svg-elem-173"></path>
<path d="M51895 15761 l-120 -39 -3 -81 -3 -81 96 0 95 0 0 -305 0 -305 -95 0
-95 0 0 -105 0 -105 305 0 305 0 0 105 0 105 -95 0 -95 0 0 425 0 425 -87 0
c-74 -1 -107 -7 -208 -39z" class="svg-elem-174"></path>
<path d="M19079 15659 c-55 -16 -87 -55 -100 -123 -6 -36 -9 -196 -7 -434 3
-357 4 -379 23 -412 38 -65 75 -75 285 -75 165 0 189 2 224 20 76 39 76 36 76
505 0 464 0 464 -70 505 -31 18 -54 20 -215 22 -99 1 -196 -3 -216 -8z m260
-203 c8 -9 11 -103 9 -322 l-3 -309 -65 0 -65 0 -3 314 c-2 245 1 316 10 323
21 13 105 9 117 -6z" class="svg-elem-175"></path>
<path d="M11087 15456 c-26 -7 -59 -23 -72 -36 -42 -40 -47 -95 -43 -510 3
-349 5 -388 21 -422 32 -63 66 -73 267 -75 220 -4 263 7 298 77 22 44 22 49
22 450 0 373 -2 408 -19 446 -30 67 -65 77 -261 81 -116 2 -179 -1 -213 -11z
m255 -210 c4 -6 8 -147 8 -312 0 -248 -3 -304 -14 -313 -8 -7 -37 -11 -68 -9
l-53 3 -3 322 -2 322 27 3 c43 5 97 -3 105 -16z" class="svg-elem-176"></path>
<path d="M27605 13981 c-48 -12 -75 -30 -95 -64 -19 -30 -20 -54 -20 -452 0
-476 0 -472 75 -510 36 -18 60 -20 225 -20 165 0 189 2 225 20 75 38 75 35 75
505 0 464 0 464 -70 505 -31 18 -54 20 -210 22 -96 1 -188 -2 -205 -6z m244
-205 c8 -9 11 -103 9 -322 l-3 -309 -65 0 -65 0 -3 309 c-2 219 1 313 9 322 7
8 31 14 59 14 28 0 52 -6 59 -14z" class="svg-elem-177"></path>
<path d="M30623 13948 l-123 -40 0 -79 0 -79 90 0 90 0 0 -305 0 -305 -90 0
-90 0 0 -105 0 -105 305 0 306 0 -3 103 -3 102 -92 3 -93 3 0 424 0 425 -87
-1 c-74 -1 -108 -8 -210 -41z" class="svg-elem-178"></path>
<path d="M32953 13948 l-123 -39 0 -80 0 -79 90 0 90 0 0 -305 0 -305 -90 0
-90 0 0 -105 0 -105 305 0 306 0 -3 103 -3 102 -92 3 -93 3 0 424 0 425 -87
-1 c-73 -1 -109 -8 -210 -41z" class="svg-elem-179"></path>
<path d="M34908 13948 l-128 -42 0 -78 0 -78 95 0 95 0 0 -305 0 -305 -95 0
-95 0 0 -105 0 -105 305 0 305 0 0 105 0 105 -95 0 -95 0 0 425 0 425 -82 -1
c-69 0 -105 -7 -210 -41z" class="svg-elem-180"></path>
<path d="M36643 13948 l-123 -39 0 -80 0 -79 90 0 90 0 0 -305 0 -305 -90 0
-90 0 0 -105 0 -105 305 0 306 0 -3 103 -3 102 -92 3 -93 3 0 424 0 425 -87
-1 c-73 -1 -109 -8 -210 -41z" class="svg-elem-181"></path>
<path d="M38310 13965 c-41 -14 -99 -32 -127 -41 l-53 -17 0 -78 0 -79 95 0
95 0 0 -305 0 -305 -95 0 -95 0 0 -105 0 -105 305 0 305 0 0 105 0 105 -95 0
-95 0 0 425 0 425 -82 0 c-60 -1 -104 -8 -158 -25z" class="svg-elem-182"></path>
<path d="M41305 13979 c-52 -13 -91 -51 -104 -104 -15 -60 -15 -775 0 -830 13
-46 32 -70 74 -94 25 -13 62 -16 220 -16 226 0 254 8 285 77 18 40 20 68 20
453 0 458 0 459 -70 500 -31 18 -54 20 -210 22 -96 1 -193 -2 -215 -8z m254
-203 c8 -9 11 -103 9 -322 l-3 -309 -67 -3 -68 -3 0 320 c0 246 3 320 13 324
27 11 105 7 116 -7z" class="svg-elem-183"></path>
<path d="M42815 13979 c-57 -14 -92 -52 -105 -115 -7 -34 -10 -185 -8 -436 3
-364 4 -385 23 -418 41 -68 66 -75 285 -75 178 0 198 2 230 20 70 41 70 43 70
505 0 462 0 464 -70 505 -31 18 -55 20 -210 22 -96 1 -193 -2 -215 -8z m254
-203 c8 -9 11 -103 9 -322 l-3 -309 -67 -3 -68 -3 0 320 c0 246 3 320 13 324
27 11 105 7 116 -7z" class="svg-elem-184"></path>
<path d="M44343 13948 l-123 -40 0 -79 0 -79 90 0 90 0 0 -305 0 -305 -90 0
-90 0 0 -105 0 -105 305 0 305 0 0 105 0 105 -95 0 -95 0 0 425 0 425 -87 -1
c-74 -1 -108 -8 -210 -41z" class="svg-elem-185"></path>
<path d="M45830 13979 c-42 -13 -66 -33 -89 -74 -14 -26 -16 -78 -16 -445 0
-399 1 -416 20 -450 41 -68 66 -75 280 -75 170 0 194 2 230 20 75 38 75 35 75
505 0 464 0 464 -70 505 -31 18 -54 20 -215 22 -102 1 -195 -2 -215 -8z m259
-203 c8 -9 11 -103 9 -322 l-3 -309 -65 0 -65 0 -3 309 c-2 219 1 313 9 322 7
8 31 14 59 14 28 0 52 -6 59 -14z" class="svg-elem-186"></path>
<path d="M47485 13985 c-5 -2 -63 -20 -127 -40 l-118 -36 0 -80 0 -79 95 0 95
0 0 -305 0 -305 -95 0 -95 0 0 -105 0 -105 305 0 305 0 0 105 0 105 -95 0 -95
0 0 425 0 425 -82 -1 c-46 0 -87 -2 -93 -4z" class="svg-elem-187"></path>
<path d="M48873 13948 l-123 -39 0 -80 0 -79 95 0 95 0 0 -305 0 -305 -95 0
-95 0 0 -105 0 -105 305 0 305 0 0 105 0 105 -95 0 -95 0 0 425 0 425 -87 -1
c-73 -1 -109 -8 -210 -41z" class="svg-elem-188"></path>
<path d="M50383 13948 l-123 -40 0 -79 0 -79 95 0 95 0 0 -305 0 -305 -95 0
-95 0 0 -105 0 -105 305 0 305 0 0 105 0 105 -95 0 -95 0 0 425 0 425 -87 -1
c-74 -1 -108 -8 -210 -41z" class="svg-elem-189"></path>
<path d="M52015 13985 c-5 -2 -63 -20 -127 -40 l-118 -37 0 -79 0 -79 95 0 95
0 0 -305 0 -305 -95 0 -95 0 0 -105 0 -105 305 0 305 0 0 105 0 105 -95 0 -95
0 0 425 0 425 -82 -1 c-46 0 -87 -2 -93 -4z" class="svg-elem-190"></path>
<path d="M23320 13890 c-56 -12 -90 -36 -113 -81 -16 -31 -17 -69 -15 -454 3
-467 2 -455 71 -492 28 -16 59 -18 232 -18 183 0 203 2 235 20 26 16 39 33 52
70 16 45 17 93 15 450 -2 381 -3 402 -22 435 -36 61 -77 73 -254 76 -86 2
-176 -1 -201 -6z m238 -522 l-3 -323 -53 -3 c-31 -2 -60 2 -68 9 -11 9 -14 64
-14 309 0 164 3 305 6 314 5 12 21 16 70 16 l64 0 -2 -322z" class="svg-elem-191"></path>
<path d="M15685 12731 l-120 -39 -3 -81 -3 -81 91 0 90 0 0 -305 0 -305 -90 0
-90 0 0 -105 0 -105 303 2 302 3 3 103 3 102 -96 0 -95 0 0 425 0 425 -87 0
c-74 -1 -107 -7 -208 -39z" class="svg-elem-192"></path>
<path d="M28805 12136 l-130 -42 -3 -77 -3 -77 96 0 95 0 0 -310 0 -310 -95 0
-95 0 0 -100 0 -100 305 0 305 0 0 100 0 100 -90 0 -90 0 -2 428 -3 427 -80 2
c-70 1 -97 -4 -210 -41z" class="svg-elem-193"></path>
<path d="M31215 12136 l-130 -42 -3 -77 -3 -77 96 0 95 0 0 -310 0 -310 -95 0
-95 0 0 -100 0 -100 305 0 305 0 0 100 0 99 -92 3 -93 3 -3 428 -2 427 -78 -1
c-62 0 -103 -9 -207 -43z" class="svg-elem-194"></path>
<path d="M33241 12170 c-56 -12 -86 -32 -108 -73 -16 -29 -18 -69 -18 -452 0
-394 1 -422 19 -451 39 -64 59 -69 281 -69 218 0 239 4 279 58 20 28 21 40 24
453 3 406 2 425 -17 462 -33 64 -69 75 -256 78 -88 2 -180 -1 -204 -6z m247
-514 c2 -219 -1 -313 -9 -322 -6 -8 -30 -14 -54 -14 -81 0 -75 -25 -75 324 0
172 3 316 7 320 4 4 34 6 68 4 l60 -3 3 -309z" class="svg-elem-195"></path>
<path d="M35053 12138 l-133 -41 0 -78 0 -78 93 -3 92 -3 0 -305 0 -305 -92
-3 -93 -3 0 -99 0 -100 305 0 305 0 0 100 0 99 -92 3 -93 3 -3 428 -2 427 -78
-1 c-61 0 -105 -9 -209 -41z" class="svg-elem-196"></path>
<path d="M36708 12137 l-128 -41 0 -78 0 -78 90 0 90 0 0 -310 0 -310 -90 0
-90 0 0 -100 0 -100 305 0 305 0 0 100 0 100 -95 0 -95 0 0 430 0 430 -82 -1
c-68 -1 -107 -9 -210 -42z" class="svg-elem-197"></path>
<path d="M38292 12139 c-68 -21 -128 -41 -133 -44 -5 -4 -9 -40 -9 -81 l0 -74
95 0 95 0 0 -310 0 -310 -95 0 -95 0 0 -100 0 -100 305 0 305 0 0 100 0 99
-92 3 -93 3 -3 428 -2 427 -78 -1 c-61 0 -103 -9 -200 -40z" class="svg-elem-198"></path>
<path d="M41328 12137 l-128 -40 0 -79 0 -78 90 0 90 0 0 -310 0 -310 -90 0
-90 0 0 -100 0 -100 305 0 305 0 0 100 0 100 -95 0 -95 0 0 430 0 430 -82 -1
c-68 -1 -107 -9 -210 -42z" class="svg-elem-199"></path>
<path d="M42838 12137 l-128 -41 0 -78 0 -78 90 0 90 0 0 -311 0 -310 -77 1
c-43 1 -84 1 -90 1 -10 -1 -13 -28 -13 -101 l0 -100 305 0 305 0 0 100 0 100
-95 0 -95 0 0 430 0 430 -82 -1 c-68 -1 -107 -9 -210 -42z" class="svg-elem-200"></path>
<path d="M44348 12137 l-128 -41 0 -78 0 -78 90 0 90 0 0 -310 0 -310 -90 0
-90 0 0 -100 0 -100 305 0 305 0 0 100 0 100 -95 0 -95 0 0 430 0 430 -82 -1
c-68 -1 -107 -9 -210 -42z" class="svg-elem-201"></path>
<path d="M45851 12170 c-56 -12 -86 -32 -108 -73 -16 -29 -18 -71 -21 -408 -4
-414 1 -476 44 -520 41 -43 91 -51 285 -47 194 3 218 10 256 67 l23 34 0 421
c0 477 0 474 -75 510 -33 17 -65 20 -200 22 -88 2 -180 -1 -204 -6z m247 -514
c2 -225 -1 -312 -9 -323 -9 -10 -29 -13 -68 -11 l-56 3 -3 310 c-1 170 0 316
3 323 3 9 23 12 67 10 l63 -3 3 -309z" class="svg-elem-202"></path>
<path d="M47361 12170 c-59 -13 -89 -34 -109 -78 -15 -32 -17 -88 -20 -415 -4
-418 1 -467 47 -511 40 -38 82 -45 259 -46 176 0 229 10 269 52 l28 29 3 432
c3 490 3 484 -73 522 -34 16 -64 20 -200 22 -88 1 -180 -2 -204 -7z m244 -525
l0 -320 -44 -3 c-25 -2 -55 -1 -68 3 l-23 5 0 314 c0 172 3 316 7 320 4 4 34
6 68 4 l60 -3 0 -320z" class="svg-elem-203"></path>
<path d="M48871 12170 c-24 -5 -55 -17 -68 -25 -52 -35 -54 -50 -51 -515 l3
-429 29 -30 c42 -44 101 -54 301 -49 192 3 220 12 252 78 16 32 18 73 18 450
0 399 -1 416 -20 450 -36 62 -77 74 -260 77 -88 1 -180 -2 -204 -7z m247 -519
c2 -245 -1 -316 -10 -323 -20 -12 -103 -9 -116 4 -13 13 -18 619 -5 632 4 4
34 6 68 4 l60 -3 3 -314z" class="svg-elem-204"></path>
<path d="M50388 12137 l-128 -41 0 -78 0 -77 93 -3 92 -3 0 -305 0 -305 -92
-3 -93 -3 0 -99 0 -100 305 0 305 0 0 100 0 99 -92 3 -93 3 -3 428 -2 427 -83
-1 c-67 -1 -106 -9 -209 -42z" class="svg-elem-205"></path>
<path d="M51899 12170 c-26 -4 -58 -15 -72 -25 -54 -35 -55 -46 -58 -490 -2
-430 -1 -445 42 -491 35 -38 92 -46 285 -42 203 3 228 11 260 75 18 35 19 67
19 453 0 399 -1 416 -20 450 -36 61 -78 74 -255 77 -85 1 -176 -2 -201 -7z
m239 -519 c2 -245 -1 -316 -10 -323 -20 -12 -103 -9 -116 4 -13 13 -18 619 -5
632 4 4 34 6 68 4 l60 -3 3 -314z" class="svg-elem-206"></path>
<path d="M25723 12027 l-133 -41 0 -78 0 -78 95 0 95 0 0 -310 0 -310 -95 0
-95 0 0 -100 0 -100 305 0 305 0 0 100 0 100 -90 0 -90 0 0 430 0 430 -82 -1
c-68 0 -107 -8 -215 -42z" class="svg-elem-207"></path>
<path d="M29553 10341 c-79 -37 -78 -29 -78 -506 0 -477 -1 -470 78 -506 36
-16 67 -19 227 -19 208 0 236 7 277 69 23 34 23 34 23 450 0 458 0 459 -63
505 -26 19 -44 21 -225 24 -177 2 -201 0 -239 -17z m292 -203 c3 -13 4 -158 3
-323 l-3 -300 -65 0 -65 0 -3 310 c-1 170 0 315 3 322 3 9 25 13 64 13 55 0
61 -2 66 -22z" class="svg-elem-208"></path>
<path d="M31605 10348 c-45 -16 -71 -45 -84 -91 -9 -30 -11 -162 -9 -447 4
-532 -19 -495 298 -495 224 0 244 4 284 58 21 28 21 38 21 462 0 424 0 434
-21 462 -39 53 -62 58 -269 60 -116 1 -202 -2 -220 -9z m270 -513 l0 -320 -62
-3 -63 -3 0 319 c0 175 3 322 7 326 4 4 32 6 63 4 l55 -3 0 -320z" class="svg-elem-209"></path>
<path d="M33436 10350 c-15 -5 -37 -17 -48 -27 -46 -41 -48 -58 -48 -490 0
-449 0 -451 63 -497 26 -19 45 -21 222 -24 176 -3 198 -2 239 16 83 37 81 27
81 507 0 477 1 470 -78 506 -37 16 -66 18 -222 18 -99 0 -193 -5 -209 -9z
m269 -515 l0 -320 -59 -3 c-41 -2 -62 1 -67 10 -10 15 -12 598 -3 623 5 13 19
15 68 13 l61 -3 0 -320z" class="svg-elem-210"></path>
<path d="M35103 10341 c-79 -37 -78 -29 -78 -506 0 -480 -2 -470 81 -507 41
-18 63 -19 239 -16 177 3 196 5 222 24 63 46 63 47 63 499 0 452 0 453 -63
499 -26 19 -44 21 -225 24 -177 2 -201 0 -239 -17z m292 -506 l0 -320 -65 0
-65 0 -3 310 c-1 170 0 316 3 323 3 9 23 12 67 10 l63 -3 0 -320z" class="svg-elem-211"></path>
<path d="M36716 10350 c-41 -13 -74 -48 -86 -89 -6 -21 -10 -202 -10 -436 0
-441 0 -443 63 -489 27 -20 42 -21 241 -21 235 0 248 3 283 68 16 29 18 69 18
452 0 555 20 519 -290 522 -104 1 -203 -2 -219 -7z m269 -515 l0 -320 -59 -3
c-41 -2 -62 1 -67 10 -15 22 -11 612 3 626 8 8 34 12 68 10 l55 -3 0 -320z" class="svg-elem-212"></path>
<path d="M38243 10341 c-79 -37 -78 -29 -78 -506 0 -558 -22 -520 307 -520
193 0 208 1 235 21 63 46 63 47 63 504 0 394 -1 417 -20 447 -39 64 -53 68
-270 71 -175 2 -199 0 -237 -17z m291 -197 c9 -24 7 -607 -3 -622 -5 -9 -26
-12 -67 -10 l-59 3 -3 310 c-1 170 0 315 3 322 7 20 121 17 129 -3z" class="svg-elem-213"></path>
<path d="M41320 10321 l-115 -37 -3 -77 -3 -77 91 0 90 0 0 -310 0 -310 -90 0
-90 0 0 -100 0 -100 305 0 305 0 0 100 0 100 -95 0 -95 0 0 425 0 425 -92 -1
c-78 -1 -111 -7 -208 -38z" class="svg-elem-214"></path>
<path d="M42830 10321 l-115 -37 -3 -77 -3 -77 63 -1 c35 -1 75 -1 91 -1 l27
-1 0 -308 0 -309 -90 0 -90 0 0 -100 0 -100 305 0 305 0 0 100 0 100 -95 0
-95 0 0 425 0 425 -92 -1 c-78 -1 -111 -7 -208 -38z" class="svg-elem-215"></path>
<path d="M44340 10321 l-115 -37 -3 -77 -3 -77 91 0 90 0 0 -310 0 -310 -90 0
-90 0 0 -100 0 -100 305 0 305 0 0 100 0 100 -95 0 -95 0 0 425 0 425 -92 -1
c-78 -1 -111 -7 -208 -38z" class="svg-elem-216"></path>
<path d="M45850 10321 l-115 -37 -3 -76 -3 -77 93 -3 93 -3 3 -307 2 -308 -95
0 -95 0 0 -100 0 -100 305 0 305 0 0 100 0 100 -95 0 -95 0 0 425 0 425 -92
-1 c-78 -1 -111 -7 -208 -38z" class="svg-elem-217"></path>
<path d="M47314 10341 c-74 -34 -74 -32 -74 -505 0 -475 0 -473 72 -506 38
-17 66 -20 228 -20 159 0 191 3 226 19 74 34 74 32 74 506 0 474 0 472 -74
506 -35 16 -67 19 -226 19 -159 0 -191 -3 -226 -19z m291 -506 l0 -320 -65 0
-65 0 -3 310 c-1 170 0 316 3 323 3 9 23 12 67 10 l63 -3 0 -320z" class="svg-elem-218"></path>
<path d="M48823 10339 c-74 -36 -73 -32 -73 -504 0 -474 0 -472 74 -506 35
-16 67 -19 226 -19 162 0 190 3 228 20 77 35 77 35 77 505 0 470 0 470 -77
505 -38 17 -66 20 -228 20 -167 0 -189 -2 -227 -21z m292 -504 l0 -320 -65 0
-65 0 -3 310 c-1 170 0 316 3 323 3 9 23 12 67 10 l63 -3 0 -320z" class="svg-elem-219"></path>
<path d="M50333 10339 c-75 -37 -74 -30 -71 -516 3 -410 4 -429 23 -455 37
-50 77 -58 278 -58 157 0 188 3 224 19 79 36 78 29 78 506 0 477 1 470 -78
506 -36 16 -67 19 -227 19 -167 0 -189 -2 -227 -21z m292 -504 l0 -320 -65 0
-65 0 -3 310 c-1 170 0 316 3 323 3 9 23 12 67 10 l63 -3 0 -320z" class="svg-elem-220"></path>
<path d="M51842 10340 c-77 -35 -77 -35 -77 -505 0 -385 1 -412 19 -449 14
-28 32 -44 63 -58 39 -17 64 -19 236 -16 215 3 237 9 271 68 20 34 21 50 21
450 0 455 -1 461 -59 503 -29 21 -43 22 -231 25 -182 2 -204 1 -243 -18z m293
-505 l0 -320 -59 -3 c-41 -2 -62 1 -67 10 -10 16 -12 622 -2 632 4 4 34 6 68
4 l60 -3 0 -320z" class="svg-elem-221"></path>
<path d="M27145 10242 c-42 -14 -53 -24 -72 -62 -23 -44 -23 -49 -23 -450 0
-373 2 -408 19 -446 32 -70 63 -79 286 -79 213 0 244 7 280 68 19 30 20 53 20
457 0 477 1 470 -72 506 -56 28 -364 32 -438 6z m259 -188 c14 -5 16 -43 16
-325 l0 -319 -65 0 -65 0 0 319 c0 246 3 320 13 324 18 8 83 8 101 1z" class="svg-elem-222"></path>
<path d="M20260 10080 c-14 -5 -71 -23 -127 -41 l-103 -32 0 -78 0 -79 90 0
90 0 0 -310 0 -310 -90 0 -90 0 0 -100 0 -100 300 0 300 0 0 100 0 100 -90 0
-90 0 0 430 0 430 -82 -1 c-46 0 -94 -4 -108 -9z" class="svg-elem-223"></path>
<path d="M30125 8543 c-47 -12 -82 -35 -100 -66 -19 -30 -20 -56 -23 -422 -4
-436 0 -478 49 -520 44 -37 66 -40 264 -40 212 0 244 9 276 79 17 38 19 73 19
446 0 551 15 523 -285 527 -99 1 -189 -1 -200 -4z m244 -207 c8 -9 11 -103 9
-322 l-3 -309 -67 -3 -68 -3 0 319 c0 175 3 322 7 325 12 13 110 7 122 -7z" class="svg-elem-224"></path>
<path d="M31933 8509 l-123 -40 0 -79 0 -80 95 0 95 0 0 -305 0 -305 -95 0
-95 0 0 -105 0 -105 305 0 305 0 0 105 0 105 -95 0 -95 0 0 425 0 425 -87 -1
c-74 0 -108 -7 -210 -40z" class="svg-elem-225"></path>
<path d="M33587 8536 c-51 -19 -63 -31 -82 -79 -14 -37 -15 -96 -13 -454 3
-400 4 -412 24 -440 46 -61 72 -68 259 -68 193 0 233 6 273 40 50 42 53 73 50
510 -3 381 -4 402 -23 435 -33 56 -86 69 -285 69 -113 0 -177 -4 -203 -13z
m271 -513 l2 -323 -65 0 -65 0 0 318 c0 175 3 322 7 326 4 4 32 6 63 4 l55 -3
3 -322z" class="svg-elem-226"></path>
<path d="M35200 8539 c-54 -16 -88 -54 -100 -115 -8 -35 -10 -184 -8 -436 3
-363 4 -385 23 -418 38 -65 75 -75 285 -75 167 0 189 2 224 21 77 40 76 35 76
504 0 464 0 464 -70 505 -31 18 -54 20 -215 22 -100 1 -195 -3 -215 -8z m259
-203 c8 -9 11 -103 9 -322 l-3 -309 -65 0 -65 0 -3 310 c-1 170 0 315 3 322 6
18 109 17 124 -1z" class="svg-elem-227"></path>
<path d="M36749 8539 c-20 -6 -50 -24 -65 -40 l-29 -30 -3 -437 c-2 -424 -2
-438 18 -470 36 -59 71 -67 280 -67 165 0 189 2 225 20 75 38 75 34 75 511 l0
421 -23 34 c-39 58 -61 64 -262 66 -99 1 -196 -3 -216 -8z m245 -199 l26 -10
-2 -312 -3 -313 -65 0 -65 0 -3 309 c-2 219 1 313 9 322 13 16 66 18 103 4z" class="svg-elem-228"></path>
<path d="M38293 8508 l-123 -40 0 -79 0 -79 95 0 95 0 0 -305 0 -304 -92 -3
-93 -3 0 -100 0 -100 303 -3 302 -2 0 105 0 105 -90 0 -90 0 0 425 0 425 -92
-1 c-80 -1 -111 -7 -215 -41z" class="svg-elem-229"></path>
<path d="M41305 8541 c-43 -11 -70 -30 -91 -65 -18 -29 -19 -59 -19 -451 0
-404 1 -421 20 -455 38 -65 75 -75 285 -75 220 0 249 8 280 77 18 40 20 68 20
453 0 458 0 459 -70 500 -31 18 -54 20 -215 22 -99 1 -193 -2 -210 -6z m254
-205 c8 -9 11 -103 9 -322 l-3 -309 -65 0 -65 0 -3 310 c-1 170 0 315 3 322 6
18 109 17 124 -1z" class="svg-elem-230"></path>
<path d="M42810 8539 c-54 -16 -88 -54 -100 -115 -7 -34 -10 -185 -8 -436 3
-364 4 -385 23 -418 38 -65 75 -75 285 -75 165 0 189 2 224 20 76 38 76 37 77
503 1 462 0 465 -71 507 -31 18 -55 20 -215 22 -100 1 -195 -3 -215 -8z m259
-203 c8 -9 11 -103 9 -322 l-3 -309 -65 0 -65 0 -3 310 c-1 170 0 315 3 322 6
18 109 17 124 -1z" class="svg-elem-231"></path>
<path d="M44320 8537 c-20 -7 -45 -19 -56 -27 -48 -35 -49 -42 -52 -453 -3
-435 1 -481 49 -521 42 -35 80 -41 274 -41 150 0 175 2 210 20 76 38 76 33 73
517 -3 415 -4 427 -24 455 -39 52 -63 58 -259 60 -120 2 -192 -2 -215 -10z
m259 -201 c8 -9 11 -103 9 -322 l-3 -309 -65 0 -65 0 -3 317 c-3 355 -10 320
74 326 26 1 46 -3 53 -12z" class="svg-elem-232"></path>
<path d="M45829 8539 c-20 -6 -49 -23 -63 -38 -42 -44 -48 -116 -44 -528 3
-348 4 -370 23 -403 38 -65 75 -75 285 -75 165 0 189 2 225 20 76 38 76 33 73
517 -3 415 -4 427 -24 455 -39 52 -63 58 -259 60 -99 1 -196 -3 -216 -8z m260
-203 c8 -9 11 -103 9 -322 l-3 -309 -65 0 -65 0 -3 314 c-2 245 1 316 10 323
21 13 105 9 117 -6z" class="svg-elem-233"></path>
<path d="M47363 8509 l-123 -40 0 -79 0 -80 95 0 95 0 0 -305 0 -305 -95 0
-95 0 0 -105 0 -105 305 0 305 0 0 105 0 105 -95 0 -95 0 0 425 0 425 -87 -1
c-74 0 -107 -6 -210 -40z" class="svg-elem-234"></path>
<path d="M48849 8539 c-20 -6 -50 -24 -65 -40 l-29 -30 -3 -432 c-3 -490 -3
-484 73 -522 36 -18 60 -20 225 -20 210 0 247 10 285 75 19 34 20 51 20 450 0
462 0 465 -68 505 -28 18 -53 20 -217 22 -102 1 -201 -3 -221 -8z m259 -197
c9 -7 12 -78 10 -323 l-3 -314 -65 0 -65 0 -3 309 c-2 219 1 313 9 322 12 15
96 19 117 6z" class="svg-elem-235"></path>
<path d="M50383 8509 l-123 -40 0 -79 0 -80 95 0 95 0 0 -305 0 -305 -95 0
-95 0 0 -105 0 -105 305 0 305 0 0 105 0 105 -95 0 -95 0 0 425 0 425 -87 -1
c-74 0 -108 -7 -210 -40z" class="svg-elem-236"></path>
<path d="M51870 8539 c-19 -6 -43 -18 -54 -27 -44 -39 -46 -59 -46 -494 0
-467 0 -464 76 -503 35 -18 59 -20 224 -20 210 0 247 10 285 75 19 34 20 51
20 455 0 394 -1 422 -19 451 -38 63 -61 69 -266 71 -106 1 -200 -2 -220 -8z
m268 -516 l-3 -318 -63 0 -64 0 1 315 c1 173 1 316 1 318 0 1 29 2 65 2 l65 0
-2 -317z" class="svg-elem-237"></path>
<path d="M28055 8442 c-37 -13 -54 -26 -70 -52 -19 -34 -20 -50 -20 -460 0
-404 1 -427 20 -457 36 -61 67 -68 280 -68 213 0 244 7 280 68 19 30 20 53 20
457 0 410 -1 426 -20 460 -33 56 -87 69 -280 69 -125 0 -171 -4 -210 -17z
m259 -188 c14 -5 16 -43 16 -325 l0 -319 -65 0 -65 0 0 318 c0 175 3 322 7
325 8 9 86 9 107 1z" class="svg-elem-238"></path>
<path d="M22373 7901 c-18 -5 -44 -16 -59 -25 -52 -35 -54 -51 -54 -498 0
-462 0 -462 70 -503 32 -18 52 -20 230 -20 219 0 244 7 285 75 19 34 20 51 20
450 0 399 -1 416 -20 450 -40 66 -68 75 -265 77 -96 1 -190 -2 -207 -6z m257
-520 c0 -282 -2 -320 -16 -325 -27 -10 -99 -7 -112 6 -9 9 -12 93 -12 318 0
169 3 310 7 313 3 4 35 7 70 7 l63 0 0 -319z" class="svg-elem-239"></path>
<path d="M24670 7021 l-115 -37 -3 -82 -3 -82 91 0 90 0 0 -305 0 -305 -90 0
-90 0 0 -100 0 -100 305 0 305 0 0 100 0 100 -95 0 -95 0 0 425 0 425 -92 -1
c-78 -1 -111 -7 -208 -38z" class="svg-elem-240"></path>
<path d="M30438 6727 c-111 -32 -112 -37 -116 -467 -4 -402 0 -465 32 -512 39
-58 59 -63 276 -63 178 0 198 2 230 20 70 41 70 41 70 505 0 470 0 467 -75
505 -34 17 -63 20 -205 22 -113 2 -180 -2 -212 -10z m260 -511 c2 -219 -1
-313 -9 -322 -6 -8 -30 -14 -54 -14 -81 0 -75 -25 -75 324 0 172 3 316 7 320
4 4 34 6 68 4 l60 -3 3 -309z" class="svg-elem-241"></path>
<path d="M32118 6698 l-128 -41 0 -79 0 -78 90 0 90 0 0 -310 0 -310 -90 0
-90 0 0 -100 0 -100 305 0 305 0 0 100 0 100 -95 0 -95 0 0 430 0 430 -82 -1
c-69 0 -105 -7 -210 -41z" class="svg-elem-242"></path>
<path d="M33697 6730 c-55 -14 -83 -36 -101 -81 -14 -34 -16 -98 -16 -442 0
-398 0 -403 23 -447 33 -66 78 -79 278 -80 194 0 246 13 281 68 l23 37 0 427
c0 418 0 427 -21 455 -45 60 -72 68 -259 70 -93 1 -187 -2 -208 -7z m251 -522
l-3 -323 -60 0 -60 0 -3 323 -2 322 65 0 65 0 -2 -322z" class="svg-elem-243"></path>
<path d="M35258 6731 c-46 -9 -83 -33 -105 -68 -17 -25 -18 -63 -18 -453 0
-404 1 -427 20 -457 36 -61 66 -68 285 -68 226 0 248 6 281 78 17 39 19 70 19
447 0 373 -2 408 -19 446 -31 67 -65 78 -261 81 -91 1 -181 -2 -202 -6z m246
-217 c11 -28 7 -594 -4 -615 -8 -14 -21 -19 -55 -19 -81 0 -75 -26 -75 331 l0
319 64 0 c49 0 65 -4 70 -16z" class="svg-elem-244"></path>
<path d="M36768 6727 c-109 -31 -108 -25 -108 -519 0 -462 0 -462 70 -503 31
-17 56 -20 203 -24 188 -3 247 6 289 46 45 43 49 93 46 514 -3 365 -4 386 -23
419 -39 66 -69 74 -260 77 -117 2 -185 -1 -217 -10z m260 -516 c2 -245 -1
-316 -10 -323 -7 -4 -32 -8 -55 -8 -75 0 -73 -7 -73 334 0 166 3 306 7 310 4
4 34 6 68 4 l60 -3 3 -314z" class="svg-elem-245"></path>
<path d="M38293 6731 c-43 -11 -79 -35 -100 -68 -17 -25 -18 -63 -18 -453 0
-477 -1 -470 72 -506 33 -17 62 -19 233 -19 226 0 248 6 281 78 17 39 19 70
19 447 0 380 -2 408 -20 448 -30 66 -61 76 -265 78 -93 2 -185 -1 -202 -5z
m251 -217 c11 -28 7 -594 -4 -615 -8 -14 -21 -19 -55 -19 -81 0 -75 -26 -75
331 l0 319 64 0 c49 0 65 -4 70 -16z" class="svg-elem-246"></path>
<path d="M41365 6710 c-49 -17 -107 -35 -127 -40 l-38 -11 0 -79 0 -80 90 0
90 0 0 -310 0 -310 -90 0 -90 0 0 -100 0 -100 305 0 305 0 0 100 0 100 -95 0
-95 0 0 430 0 430 -82 0 c-64 -1 -103 -7 -173 -30z" class="svg-elem-247"></path>
<path d="M42823 6731 c-43 -11 -79 -35 -100 -68 -17 -25 -18 -63 -18 -453 0
-399 1 -427 19 -456 39 -64 59 -69 281 -69 183 0 203 2 235 20 70 41 70 41 70
505 0 470 0 467 -75 505 -35 17 -63 20 -210 22 -93 1 -185 -2 -202 -6z m255
-517 c2 -242 -1 -313 -10 -321 -7 -5 -39 -7 -70 -5 l-58 4 0 312 c0 172 3 316
7 320 4 4 34 6 68 4 l60 -3 3 -311z" class="svg-elem-248"></path>
<path d="M44348 6698 l-128 -41 0 -79 0 -78 90 0 90 0 0 -310 0 -310 -90 0
-90 0 0 -100 0 -100 305 0 305 0 0 100 0 100 -95 0 -95 0 0 430 0 430 -82 -1
c-69 0 -105 -7 -210 -41z" class="svg-elem-249"></path>
<path d="M45858 6698 l-128 -42 0 -78 0 -78 95 0 95 0 -2 -307 -3 -308 -92 -3
-93 -3 0 -99 0 -100 305 0 305 0 0 100 0 99 -92 3 -93 3 -3 428 -2 427 -83 0
c-68 -1 -103 -8 -209 -42z" class="svg-elem-250"></path>
<path d="M47470 6730 c-14 -5 -71 -23 -127 -41 l-103 -32 0 -78 0 -79 95 0 95
0 -2 -307 -3 -308 -92 -3 -93 -3 0 -99 0 -100 305 0 305 0 0 100 0 99 -92 3
-93 3 -3 428 -2 427 -83 -1 c-45 0 -93 -4 -107 -9z" class="svg-elem-251"></path>
<path d="M48878 6698 l-128 -41 0 -78 0 -78 93 -3 92 -3 0 -305 0 -305 -92 -3
-93 -3 0 -99 0 -100 305 0 305 0 0 100 0 99 -92 3 -93 3 -3 428 -2 427 -83 -1
c-68 0 -104 -7 -209 -41z" class="svg-elem-252"></path>
<path d="M50368 6726 c-109 -30 -108 -24 -108 -518 0 -462 0 -462 70 -503 32
-18 52 -20 230 -20 224 0 254 8 287 73 17 34 18 70 18 452 0 399 -1 416 -20
450 -39 66 -69 75 -260 77 -116 2 -185 -2 -217 -11z m260 -510 c2 -219 -1
-313 -9 -322 -14 -17 -100 -19 -117 -2 -13 13 -18 619 -5 632 4 4 34 6 68 4
l60 -3 3 -309z" class="svg-elem-253"></path>
<path d="M51898 6697 l-128 -40 0 -79 0 -78 95 0 95 0 -2 -307 -3 -308 -92 -3
-93 -3 0 -99 0 -100 305 0 305 0 0 100 0 99 -92 3 -93 3 -3 428 -2 427 -83 -1
c-67 -1 -105 -8 -209 -42z" class="svg-elem-254"></path>
<path d="M28648 6628 l-128 -41 0 -79 0 -78 95 0 95 0 0 -305 0 -304 -92 -3
-93 -3 -3 -102 -3 -103 306 0 305 0 0 105 0 105 -90 0 -90 0 0 425 0 425 -87
-1 c-75 0 -108 -7 -215 -41z" class="svg-elem-255"></path>
<path d="M26078 5847 l-128 -40 0 -79 0 -78 95 0 95 0 0 -305 0 -304 -92 -3
-93 -3 -3 -102 -3 -103 306 0 305 0 0 105 0 105 -95 0 -95 0 0 425 0 425 -82
-1 c-68 -1 -107 -9 -210 -42z" class="svg-elem-256"></path>
</g>
</svg>
